<svg id="Capa_1" data-name="Capa 1" xmlns="http://www.w3.org/2000/svg" viewBox="0 0 62.79 29.7"><path id="Trazado_543" data-name="Trazado 543" d="M64.79,45.55l-1.72-.19L58.6,30.72l2.21.24,1,3.61,6.66.73L70.26,32l2.21.24Zm-2.44-9.24L64.26,43h0l3.35-6.14Z" transform="translate(-9.68 -15.85)"/><path id="Trazado_544" data-name="Trazado 544" d="M58.35,44.72l-2.17-.4-2-12h0L47.85,42.79l-2.05-.38,8-12.83,1.76.32Z" transform="translate(-9.68 -15.85)"/><path id="Trazado_545" data-name="Trazado 545" d="M44.23,41.8l-8.78-2.3.45-1.73,6.94,1.81,1.06-4-6.46-1.69.45-1.73,6.46,1.69,1.15-4.37-7.29-1.9.45-1.73,9.13,2.39Z" transform="translate(-9.68 -15.85)"/><path id="Trazado_546" data-name="Trazado 546" d="M32.66,38.38l-2.36-.84L26.85,24.06h0L23,35l-1.8-.64,4.69-13.26,2.29.81,3.52,13.51,0,0,3.86-10.9,1.8.63Z" transform="translate(-9.68 -15.85)"/><path id="Trazado_547" data-name="Trazado 547" d="M18,32.55,9.68,28.82l.74-1.63L17,30.14l1.72-3.82L12.6,23.57l.74-1.63,6.08,2.75,1.86-4.11-6.87-3.1.74-1.63,8.6,3.88Z" transform="translate(-9.68 -15.85)"/></svg>