<svg id="Capa_1" data-name="Capa 1" xmlns="http://www.w3.org/2000/svg" viewBox="0 0 95.21 99.47"><path d="M88,62.08a4.73,4.73,0,0,0-2.49-3.26c-3.07-1.59-6.35-.18-7.95,2.92a5.65,5.65,0,0,0,2.34,7.95,4.74,4.74,0,0,0,4.51,0l1,2a7.15,7.15,0,0,1-6.4-.28,7.91,7.91,0,0,1-3.37-10.67c2.19-4.24,6.67-5.79,10.87-3.62A6.79,6.79,0,0,1,90.1,61.7Z" transform="translate(-74.66 -56.13)"/><path d="M89.5,67.84A8,8,0,1,1,91.9,79,7.82,7.82,0,0,1,89.5,67.84Zm11.63,7.43c1.81-2.84,1.37-6.39-1.59-8.28s-6.37-.79-8.18,2S90,75.41,93,77.3A5.78,5.78,0,0,0,101.13,75.27Z" transform="translate(-74.66 -56.13)"/><path d="M116.79,81.56a4.73,4.73,0,0,0-1.85-3.66c-2.73-2.11-6.22-1.32-8.36,1.44-2,2.56-2,6,.87,8.24a4.72,4.72,0,0,0,4.43.82l.58,2.13a7.17,7.17,0,0,1-6.24-1.43A7.91,7.91,0,0,1,104.83,78c2.93-3.78,7.61-4.48,11.35-1.59A6.73,6.73,0,0,1,119,81.58Z" transform="translate(-74.66 -56.13)"/><path d="M126.64,85.77,128,87.05l-5.54,15.75-1.79-1.64,1.43-3.84-5.38-4.94-3.69,1.77-1.79-1.64Zm-3.84,9.7,2.66-7.13,0,0-6.91,3.23Z" transform="translate(-74.66 -56.13)"/><path d="M143.82,108.57a4.7,4.7,0,0,0-1.09-3.95c-2.26-2.61-5.83-2.53-8.47-.25a5.65,5.65,0,0,0-.79,8.24,4.73,4.73,0,0,0,4.19,1.69l.14,2.19a7.14,7.14,0,0,1-5.83-2.63,7.9,7.9,0,0,1,.84-11.16c3.61-3.12,8.35-2.89,11.44.69A6.78,6.78,0,0,1,146,109Z" transform="translate(-74.66 -56.13)"/><path d="M143.1,114.48a8,8,0,1,1-1.89,11.2A7.81,7.81,0,0,1,143.1,114.48Zm8,11.2a5.8,5.8,0,1,0-6.75-9.41c-2.73,2-3.64,5.42-1.6,8.27S148.41,127.64,151.14,125.68Z" transform="translate(-74.66 -56.13)"/><path d="M160.7,126.42l1.07,1.79-11.49,6.9,3.63,6-1.67,1-4.7-7.83Z" transform="translate(-74.66 -56.13)"/><path d="M169,141.13l.85,1.68-10.73,12.8-1.1-2.17,2.69-3.09-3.3-6.52-4.07.36-1.1-2.16Zm-7,7.72,5-5.73,0,0-7.6.59Z" transform="translate(-74.66 -56.13)"/></svg>