<?xml version="1.0" encoding="utf-8"?>
<!-- Generator: Adobe Illustrator 25.3.0, SVG Export Plug-In . SVG Version: 6.00 Build 0)  -->
<svg version="1.1" id="Layer_1" xmlns="http://www.w3.org/2000/svg" xmlns:xlink="http://www.w3.org/1999/xlink" x="0px" y="0px"
	 viewBox="0 0 168 84" style="enable-background:new 0 0 168 84;" xml:space="preserve">
<path d="M149.47,54.41l-4.5,0.43c-5.45,0.52-7.17-3.42-7.4-5.81c-0.31-3.3,1.85-6.69,6.46-7.13l4.21-0.4L149.47,54.41z
	 M146.64,43.31l-2.21,0.21c-2.95,0.28-5.32,2.14-5.01,5.33c0.16,1.64,1.32,4.73,5.51,4.33l2.63-0.25L146.64,43.31z"/>
<path d="M135.26,55.61l-1.76,0.1l-0.71-12.95l1.76-0.1L135.26,55.61z"/>
<path d="M129.22,45.64c-0.64-0.94-1.73-1.36-2.78-1.33c-1.16,0.02-2.57,0.79-2.54,2.22c0.06,2.99,6.42,1,6.53,6.06
	c0.03,1.52-1.2,3.66-4.32,3.72c-1.41,0.03-2.77-0.23-3.77-1.4l1.4-1.33c0.45,0.67,1.33,1.11,2.33,1.09c1.94-0.04,2.5-1.23,2.49-2.03
	c-0.07-3.28-6.42-1.18-6.53-5.85c-0.05-2.51,1.93-4.06,4.42-4.11c1.67-0.04,3.27,0.5,4.18,1.71L129.22,45.64z"/>
<path d="M110.21,53.01c0.71,0.97,1.9,1.54,3.09,1.57c2.91,0.08,4.9-2.19,4.98-5.14c0.08-2.73-1.67-5.1-4.7-5.19
	c-1.48-0.04-2.64,0.59-3.44,1.65l-1.45-1.16c0.4-0.52,2-2.22,4.97-2.13c4.12,0.11,6.57,3.62,6.48,6.88
	c-0.11,4.03-2.96,6.84-6.95,6.74c-1.7-0.05-3.48-0.74-4.49-2.14L110.21,53.01z"/>
<path d="M107.02,49.22c-0.34,3.83-3.39,6.54-7.33,6.19c-3.94-0.35-6.47-3.55-6.13-7.39c0.34-3.83,3.39-6.54,7.34-6.19
	C104.83,42.18,107.36,45.38,107.02,49.22z M95.42,48.19c-0.25,2.83,1.46,5.32,4.42,5.58c2.96,0.26,5.08-1.89,5.33-4.71
	c0.25-2.83-1.46-5.32-4.42-5.58C97.79,43.21,95.67,45.36,95.42,48.19z"/>
<path d="M91.68,54.31l-2.01-0.3l-2.23-11l-0.04,0l-5.45,9.86l-1.9-0.28l6.95-12.09l1.63,0.24L91.68,54.31z"/>
<path d="M78.02,52.2l-8.21-1.63l0.32-1.62l6.49,1.29l0.75-3.79l-6.04-1.2l0.32-1.62l6.04,1.2l0.81-4.08l-6.81-1.35l0.32-1.62
	l8.54,1.7L78.02,52.2z"/>
<path d="M66.58,49.84l-4.43-1.11c-3.22-0.8-3.55-2.95-3.16-4.53c0.4-1.6,1.97-2.81,3.92-2.55l-2.14-6.63l2.13,0.53l1.81,6.35
	l1.9,0.47l1.39-5.55l1.71,0.43L66.58,49.84z M66.26,43.87l-2.24-0.56c-1.35-0.34-2.78-0.35-3.21,1.35c-0.43,1.71,0.84,2.36,2.2,2.7
	l2.24,0.56L66.26,43.87z"/>
<path d="M54.78,39l2.56,8.54l-2.16-0.65l-1.75-6.48l-5.13,4.41l-2.05-0.62l6.85-5.71l1.59-5.3l1.68,0.51L54.78,39z"/>
<path d="M39.4,41.79l-7.63-2.89l0.58-1.54l5.98,2.27l1.44-3.8l-5.57-2.11l0.58-1.54l5.57,2.11l1.99-5.24l1.64,0.62L39.4,41.79z"/>
<path d="M29.07,37.82l-2.11-0.94l-2.21-12.65l-0.03-0.01l-4.33,9.75l-1.61-0.71l5.26-11.86l2.04,0.91l2.28,12.68l0.03,0.01
	l4.33-9.75l1.61,0.71L29.07,37.82z"/>
</svg>
