<?xml version="1.0" encoding="utf-8"?>
<!-- Generator: Adobe Illustrator 25.3.0, SVG Export Plug-In . SVG Version: 6.00 Build 0)  -->
<svg version="1.1" id="Layer_1" xmlns="http://www.w3.org/2000/svg" xmlns:xlink="http://www.w3.org/1999/xlink" x="0px" y="0px"
	 viewBox="0 0 158 76" style="enable-background:new 0 0 158 76;" xml:space="preserve">
<path d="M67.92,12.52l3.61,2.73c4.37,3.3,2.97,7.37,1.53,9.28c-2,2.65-5.88,3.68-9.58,0.89l-3.38-2.55L67.92,12.52z M62.5,22.61
	l1.77,1.34c2.37,1.79,5.37,2.01,7.3-0.54c0.99-1.32,2.23-4.38-1.13-6.92l-2.1-1.59L62.5,22.61z"/>
<path d="M79.23,21.27l1.36,1.12l-8.24,10.03l-1.36-1.12L79.23,21.27z"/>
<path d="M76.91,32.68c-0.16,1.13,0.36,2.17,1.15,2.86c0.87,0.76,2.42,1.16,3.37,0.08c1.97-2.24-4.05-5.08-0.71-8.88
	c1-1.14,3.36-1.88,5.7,0.18c1.06,0.93,1.88,2.05,1.83,3.58l-1.93,0.03c0.12-0.8-0.23-1.71-0.98-2.38c-1.46-1.28-2.67-0.79-3.21-0.18
	c-2.17,2.46,3.93,5.21,0.85,8.72c-1.66,1.89-4.16,1.68-6.04,0.04c-1.25-1.1-2.07-2.58-1.92-4.08L76.91,32.68z"/>
<path d="M91.43,31.85l1.65,1.62l-2.35,12.62l0.03,0.03l7.46-7.62l1.26,1.23l-9.08,9.27l-1.6-1.56l2.3-12.67l-0.03-0.03l-7.46,7.62
	l-1.26-1.23L91.43,31.85z"/>
<path d="M102.13,42.54l5.65,6.18l-1.22,1.11l-4.46-4.88l-2.85,2.61l4.15,4.54l-1.22,1.11l-4.15-4.54l-3.07,2.81l4.68,5.12
	l-1.22,1.11l-5.87-6.42L102.13,42.54z"/>
<path d="M106.16,58.32l2.6-8.53l1.44,1.74l-2.13,6.36l6.72-0.83l1.37,1.65l-8.86,0.96l-4.26,3.53l-1.12-1.35L106.16,58.32z"/>
</svg>
