<?xml version="1.0" encoding="utf-8"?>
<!-- Generator: Adobe Illustrator 25.3.0, SVG Export Plug-In . SVG Version: 6.00 Build 0)  -->
<svg version="1.1" id="Layer_1" xmlns="http://www.w3.org/2000/svg" xmlns:xlink="http://www.w3.org/1999/xlink" x="0px" y="0px"
	 viewBox="0 0 158 76" style="enable-background:new 0 0 158 76;" xml:space="preserve">
<path d="M74.31,15.36l4.41,7.12l-1.4,0.87l-3.48-5.62l-3.29,2.04L73.79,25l-1.4,0.87l-3.24-5.23l-3.54,2.19l3.66,5.91l-1.4,0.87
	l-4.58-7.4L74.31,15.36z"/>
<path d="M71.57,30.62c-0.53,1.01-0.39,2.17,0.12,3.08c0.56,1.01,1.9,1.9,3.15,1.21c2.61-1.45-2.12-6.14,2.3-8.6
	c1.33-0.74,3.79-0.64,5.31,2.08c0.69,1.23,1.09,2.56,0.52,3.99l-1.83-0.62c0.38-0.71,0.36-1.69-0.13-2.57
	c-0.94-1.7-2.25-1.64-2.96-1.25c-2.87,1.59,1.96,6.23-2.12,8.5c-2.19,1.22-4.49,0.19-5.7-1.99c-0.81-1.46-1.09-3.12-0.45-4.49
	L71.57,30.62z"/>
<path d="M85.48,34.67l2.03,4.08c1.48,2.97,0.07,4.61-1.39,5.34s-3.62,0.86-5.1-2.11l-1.25-2.51l-5.12,2.55l-0.78-1.57L85.48,34.67z
	 M81.14,38.79l1.03,2.07c0.62,1.25,1.54,2.35,3.11,1.56c1.57-0.78,1.25-2.18,0.63-3.42l-1.03-2.07L81.14,38.79z"/>
<path d="M90.51,44.9l0.91,2.12L84.46,57.8l0.01,0.03l9.8-4.22l0.7,1.62l-11.92,5.13l-0.88-2.05l6.94-10.85l-0.01-0.03l-9.79,4.22
	l-0.7-1.62L90.51,44.9z"/>
</svg>
