<?xml version="1.0" encoding="utf-8"?>
<!-- Generator: Adobe Illustrator 25.3.0, SVG Export Plug-In . SVG Version: 6.00 Build 0)  -->
<svg version="1.1" id="Layer_1" xmlns="http://www.w3.org/2000/svg" xmlns:xlink="http://www.w3.org/1999/xlink" x="0px" y="0px"
	 viewBox="0 0 144 101" style="enable-background:new 0 0 144 101;" xml:space="preserve">
<path d="M21.74,79.61l4.8,4.22c-0.26,1.46-1.31,3.29-2.35,4.47c-2.9,3.3-6.94,3.15-9.71,0.71c-2.89-2.54-3.27-6.61-0.66-9.58
	c1.57-1.79,3.01-2.45,4.46-2.52l0.18,1.82c-1.47,0.12-2.54,0.81-3.4,1.79c-1.96,2.23-1.48,5.21,0.65,7.09
	c2.2,1.94,5.32,1.77,7.21-0.37c0.81-0.92,1.41-1.96,1.6-2.84l-2.71-2.38l-1.9,2.16l-1.24-1.09L21.74,79.61z"/>
<path d="M20.02,73.15l1.23-1.26l8.11,7.9l4.16-4.26l1.18,1.15l-5.38,5.52L20.02,73.15z"/>
<path d="M30.84,71.3c-2.61-2.83-2.56-6.91,0.35-9.6c2.91-2.68,6.98-2.4,9.59,0.43c2.61,2.83,2.56,6.91-0.35,9.59
	C37.52,74.41,33.45,74.13,30.84,71.3z M39.41,63.4c-1.93-2.09-4.92-2.5-7.1-0.48c-2.18,2.01-2.02,5.03-0.09,7.12
	c1.93,2.09,4.92,2.5,7.1,0.48C41.5,68.5,41.34,65.49,39.41,63.4z"/>
<path d="M42.27,60.85c-2.42-3-2.1-7.07,0.98-9.55c3.08-2.49,7.13-1.93,9.54,1.06s2.1,7.07-0.98,9.55
	C48.73,64.4,44.69,63.84,42.27,60.85z M51.34,53.53c-1.78-2.21-4.74-2.82-7.05-0.95c-2.31,1.86-2.35,4.88-0.57,7.1
	c1.78,2.21,4.74,2.82,7.05,0.95C53.09,58.76,53.13,55.74,51.34,53.53z"/>
<path d="M51.19,45.46l2.15-1.5l9,5.69l0.06-0.04l-2.28-10.39l2.15-1.5l7.43,10.63l-1.44,1.01l-6.11-8.74l-0.03,0.02l2.52,11.25
	l-0.96,0.67l-9.7-6.23l-0.03,0.02l6.11,8.74l-1.44,1.01L51.19,45.46z"/>
<path d="M72.02,40.43l-8.07-3.78l1.92-1.18l5.99,3.01L72,31.73l1.83-1.12l-0.3,8.91l2.89,4.72l-1.5,0.92L72.02,40.43z"/>
<path d="M83.84,25.2l1.42-0.73l10.87,9l-1.83,0.94l-2.62-2.26l-5.49,2.82l0.33,3.44l-1.83,0.94L83.84,25.2z M90.4,31.08l-4.87-4.19
	l-0.03,0.02l0.54,6.42L90.4,31.08z"/>
<path d="M92.13,21.11l1.59-0.74l5.47,11.77l-1.6,0.74L92.13,21.11z"/>
<path d="M97.05,18.84l4.2-1.77c3.05-1.29,4.61,0.22,5.24,1.72c0.64,1.52,0.12,3.43-1.6,4.4l5.69,4.02l-2.03,0.85l-5.26-3.98
	l-1.81,0.76l2.22,5.26l-1.62,0.68L97.05,18.84z M100.89,23.42l2.13-0.9c1.28-0.54,2.44-1.39,1.75-3.01
	c-0.68-1.62-2.09-1.38-3.38-0.84l-2.13,0.9L100.89,23.42z"/>
<path d="M111.74,23.89c0.91,0.68,2.08,0.72,3.06,0.36c1.08-0.4,2.17-1.58,1.68-2.92c-1.03-2.8-6.39,1.14-8.14-3.6
	c-0.53-1.43-0.05-3.85,2.87-4.92c1.32-0.49,2.7-0.68,4.02,0.1l-0.89,1.71c-0.65-0.48-1.61-0.62-2.56-0.27
	c-1.82,0.67-1.97,1.97-1.69,2.73c1.13,3.08,6.46-0.97,8.07,3.41c0.87,2.36-0.5,4.46-2.84,5.32c-1.57,0.58-3.26,0.59-4.51-0.25
	L111.74,23.89z"/>
</svg>
