<?xml version="1.0" encoding="utf-8"?>
<!-- Generator: Adobe Illustrator 25.3.0, SVG Export Plug-In . SVG Version: 6.00 Build 0)  -->
<svg version="1.1" id="Layer_1" xmlns="http://www.w3.org/2000/svg" xmlns:xlink="http://www.w3.org/1999/xlink" x="0px" y="0px"
	 viewBox="0 0 63 115" style="enable-background:new 0 0 63 115;" xml:space="preserve">
<path d="M30.67,93.41l-0.25-1.74l5.33-0.78l-0.97-6.65l-5.33,0.78l-0.25-1.74l12.83-1.88l0.25,1.74L36.4,84l0.97,6.65l5.87-0.86
	l0.25,1.74L30.67,93.41z"/>
<path d="M35.23,79.64c-3.84,0.32-7.03-2.23-7.36-6.17c-0.33-3.95,2.4-6.99,6.23-7.31c3.83-0.32,7.03,2.23,7.36,6.17
	C41.79,76.28,39.07,79.32,35.23,79.64z M34.26,68.02c-2.83,0.24-4.99,2.35-4.74,5.31s2.73,4.68,5.56,4.45
	c2.83-0.24,4.99-2.35,4.74-5.31S37.09,67.79,34.26,68.02z"/>
<path d="M27.52,63.52l-0.04-2.31L38,53.86v-0.04l-10.67,0.2l-0.03-1.76l12.97-0.25l0.04,2.24l-10.53,7.42l0,0.04l10.67-0.2
	l0.03,1.76L27.52,63.52z"/>
<path d="M27.35,48.64l0.19-4.52c0.22-5.47,4.36-6.64,6.76-6.55c3.31,0.14,6.38,2.74,6.19,7.37l-0.17,4.23L27.35,48.64z M38.74,47.35
	l0.09-2.22c0.12-2.97-1.41-5.56-4.61-5.69c-1.65-0.07-4.87,0.66-5.04,4.88l-0.11,2.64L38.74,47.35z"/>
<path d="M28.47,30.15l0.16-1.59l13.46-4.25l-0.2,2.04l-3.32,0.98l-0.61,6.14l3.06,1.59l-0.2,2.04L28.47,30.15z M36.97,27.82
	l-6.16,1.82l0,0.04l5.68,3.03L36.97,27.82z"/>
</svg>
