<?xml version="1.0" encoding="utf-8"?>
<!-- Generator: Adobe Illustrator 25.3.0, SVG Export Plug-In . SVG Version: 6.00 Build 0)  -->
<svg version="1.1" id="Layer_1" xmlns="http://www.w3.org/2000/svg" xmlns:xlink="http://www.w3.org/1999/xlink" x="0px" y="0px"
	 viewBox="0 0 63 115" style="enable-background:new 0 0 63 115;" xml:space="preserve">
<path d="M8.97,102.28l0.36-1.72l12.7,2.62l-0.36,1.72L8.97,102.28z"/>
<path d="M10.08,96.85l0.57-2.24l12.09-4.32l0.01-0.04l-10.34-2.61l0.43-1.71l12.58,3.18l-0.55,2.17l-12.1,4.39l-0.01,0.04
	l10.34,2.61l-0.43,1.71L10.08,96.85z"/>
<path d="M22.74,73.39l6.09,1.95c0.35,1.44,0.11,3.54-0.37,5.04c-1.34,4.19-5.1,5.65-8.61,4.53c-3.66-1.18-5.63-4.75-4.42-8.52
	c0.73-2.27,1.78-3.45,3.08-4.09l0.89,1.59c-1.3,0.7-2.01,1.76-2.41,3c-0.91,2.83,0.72,5.37,3.42,6.24c2.79,0.9,5.58-0.5,6.46-3.22
	c0.38-1.17,0.51-2.36,0.33-3.24l-3.44-1.1l-0.88,2.74l-1.57-0.5L22.74,73.39z"/>
<path d="M18.6,68.08l1.63-4.26c1.19-3.1,3.35-3.17,4.88-2.58c1.54,0.59,2.55,2.29,2.06,4.2l6.84-1.32l-0.79,2.05l-6.52,1.03
	L26,69.04l5.34,2.05l-0.63,1.64L18.6,68.08z M24.57,68.48l0.83-2.16c0.5-1.3,0.69-2.72-0.95-3.35c-1.64-0.63-2.45,0.55-2.95,1.85
	l-0.83,2.16L24.57,68.48z"/>
<path d="M24.52,53.46L25.17,52l14.11,0.21l-0.83,1.88l-3.46-0.12l-2.51,5.64l2.41,2.48l-0.83,1.88L24.52,53.46z M33.32,53.93
	l-6.42-0.22l-0.01,0.03l4.44,4.67L33.32,53.93z"/>
<path d="M27.25,47.33l0.92-1.81l11.14,1.37l0.02-0.03l-7.62-8.3l0.87-1.72l9.26,10.43l-0.75,1.47L27.25,47.33z"/>
<path d="M33.55,35.17l0.85-1.54l11.35,6.28l-0.85,1.54L33.55,35.17z"/>
<path d="M36.05,30.62l2.35-3.87c2.84-4.68,7.03-3.7,9.08-2.46c2.83,1.72,4.26,5.48,1.85,9.44l-2.2,3.62L36.05,30.62z M46.64,34.99
	l1.15-1.89c1.54-2.54,1.46-5.54-1.28-7.21c-1.41-0.86-4.58-1.77-6.77,1.83l-1.37,2.25L46.64,34.99z"/>
<path d="M43.65,18.37l4.73-6.91l1.36,0.93l-3.73,5.46l3.19,2.18l3.48-5.08l1.36,0.93l-3.48,5.08l3.43,2.35l3.92-5.73l1.36,0.93
	l-4.91,7.18L43.65,18.37z"/>
</svg>
