<svg id="Capa_1" data-name="Capa 1" xmlns="http://www.w3.org/2000/svg" viewBox="0 0 89.86 51.21"><path id="Trazado_535" data-name="Trazado 535" d="M101.22,24.22l-1.49,1.19-7.67-9.59-5,4-1.12-1.4,6.53-5.23Z" transform="translate(-11.36 -13.23)"/><path id="Trazado_536" data-name="Trazado 536" d="M89.76,33.58l-1.43,1L75.4,26.38l1.84-1.26,3.13,2.06,5.52-3.79-.83-3.65,1.84-1.26Zm-7.87-5.41L87.71,32l0,0-1.46-6.83Z" transform="translate(-11.36 -13.23)"/><path id="Trazado_537" data-name="Trazado 537" d="M81.93,39.22l-4.27,2.42c-5.16,2.93-8.61-.2-9.9-2.46C66,36.05,66.62,31.74,71,29.25L75,27ZM74.2,29.48l-2.09,1.19c-2.8,1.59-4.3,4.48-2.59,7.5.89,1.56,3.4,4.1,7.38,1.84l2.49-1.41Z" transform="translate(-11.36 -13.23)"/><path id="Trazado_538" data-name="Trazado 538" d="M62.42,41,70.65,46l-2.22,1-6.08-4-1,7.27-2.1,1,1.42-9.56-2.54-5.44,1.73-.8Z" transform="translate(-11.36 -13.23)"/><path id="Trazado_539" data-name="Trazado 539" d="M53.67,41.94a3.5,3.5,0,0,0-3.33-.34c-1.16.44-2.33,1.74-1.77,3.19,1.16,3,6.91-1.33,8.88,3.79.59,1.54.11,4.17-3.05,5.38A4.88,4.88,0,0,1,50,53.91L51,52a2.93,2.93,0,0,0,2.78.26c2-.76,2.1-2.17,1.79-3-1.27-3.32-7,1.15-8.8-3.58-1-2.54.49-4.85,3-5.82a5.41,5.41,0,0,1,4.89.22Z" transform="translate(-11.36 -13.23)"/><path id="Trazado_540" data-name="Trazado 540" d="M46.68,49.39a7.34,7.34,0,1,1-9.1-5,7.16,7.16,0,0,1,9,4.66C46.61,49.13,46.65,49.26,46.68,49.39ZM34.54,52.92a5.33,5.33,0,1,0-.1-.32c0,.11.07.21.1.32Z" transform="translate(-11.36 -13.23)"/><path id="Trazado_541" data-name="Trazado 541" d="M32,61l-8.66,1.75L23,61l6.8-1.37-.87-4.32-6.33,1.28-.35-1.76,6.33-1.28-1.2-5.95,1.87-.38Z" transform="translate(-11.36 -13.23)"/><path id="Trazado_542" data-name="Trazado 542" d="M17.74,61.83l4.5-.59L22.47,63,11.59,64.44l-.23-1.77,4.49-.59-1.6-12.17,1.89-.25Z" transform="translate(-11.36 -13.23)"/></svg>