<svg id="Capa_1" data-name="Capa 1" xmlns="http://www.w3.org/2000/svg" viewBox="0 0 51.59 40.7"><path d="M170.91,272.56l1.6-1.33,8.58,10.3L186.5,277l1.25,1.5-7,5.85Z" transform="translate(-170.91 -243.66)"/><path d="M184.19,262.09l1.54-1.1L200,269.64l-2,1.41-3.47-2.19-5.93,4.26,1,4-2,1.42Zm8.71,5.74-6.44-4.06,0,0,1.74,7.42Z" transform="translate(-170.91 -243.66)"/><path d="M199.83,262.16l-9.56-4.44,2.27-1.4,7.1,3.54.13-8,2.16-1.33-.33,10.54,3.44,5.57-1.77,1.09Z" transform="translate(-170.91 -243.66)"/><path d="M205.31,248.77l2.43-1.33-1.33,4.29-1.58.87Z" transform="translate(-170.91 -243.66)"/><path d="M214.84,257.43a3.82,3.82,0,0,0,3.65.05c1.23-.6,2.37-2.12,1.62-3.64-1.55-3.17-7.39,2.12-10-3.26-.79-1.62-.52-4.53,2.8-6.14a5.28,5.28,0,0,1,4.74-.37l-.84,2.13a3.25,3.25,0,0,0-3,0c-2.06,1-2.08,2.56-1.66,3.42,1.71,3.49,7.49-1.92,9.92,3,1.3,2.67-.06,5.31-2.71,6.61a5.92,5.92,0,0,1-5.34.24Z" transform="translate(-170.91 -243.66)"/></svg>