<svg id="Capa_1" data-name="Capa 1" xmlns="http://www.w3.org/2000/svg" viewBox="0 0 44.45 97.71"><path d="M135.34,525.87l-2.86-4.58c-2.07-3.33-.59-5.42,1.05-6.44s4.17-1.43,6.24,1.9l1.75,2.82,5.75-3.58,1.1,1.77Zm4.64-5.34-1.44-2.32c-.88-1.4-2.08-2.59-3.84-1.49s-1.23,2.71-.36,4.11l1.44,2.31Z" transform="translate(-103.92 -428.17)"/><path d="M126.75,511.34l-.89-1.66,10.48-13,1.14,2.14L134.85,502l3.43,6.45,4.06-.44,1.14,2.14Zm6.85-7.86-4.88,5.83,0,0,7.58-.74Z" transform="translate(-103.92 -428.17)"/><path d="M121.5,501.09l-1.06-2.52,8.35-12.7,0,0-11.63,4.9-.81-1.91,14.15-6,1,2.44-8.32,12.78,0,0,11.63-4.9.81,1.92Z" transform="translate(-103.92 -428.17)"/><path d="M115.56,480.53l1.54,4.69-1.85.61-3.74-11.37,1.86-.61,1.54,4.7,12.73-4.18.65,2Z" transform="translate(-103.92 -428.17)"/><path d="M110.72,471.53l-2.41-9.61,1.89-.47,1.9,7.59,4.44-1.12-1.77-7.06,1.89-.48,1.77,7.07,4.78-1.2-2-8,1.89-.48,2.51,10Z" transform="translate(-103.92 -428.17)"/><path d="M107.36,457.71l-.44-2.7L118,444.62v0l-12.46,2-.33-2.05,15.15-2.49.43,2.62-11.08,10.47v0l12.46-2,.34,2.06Z" transform="translate(-103.92 -428.17)"/><path d="M104.7,439.65l-.78-9.88,2-.16.61,7.81,4.57-.36-.58-7.27,2-.15.57,7.26,4.91-.38-.65-8.2,2-.15.81,10.27Z" transform="translate(-103.92 -428.17)"/></svg>