<?xml version="1.0" encoding="utf-8"?>
<!-- Generator: Adobe Illustrator 25.3.0, SVG Export Plug-In . SVG Version: 6.00 Build 0)  -->
<svg version="1.1" id="Layer_1" xmlns="http://www.w3.org/2000/svg" xmlns:xlink="http://www.w3.org/1999/xlink" x="0px" y="0px"
	 viewBox="0 0 69 151" style="enable-background:new 0 0 69 151;" xml:space="preserve">
<path d="M37.85,12.06l1.28,4.38c0.93,3.18-0.75,4.55-2.32,5.01c-1.57,0.46-3.72,0.21-4.65-2.98l-0.78-2.69l-5.49,1.6l-0.49-1.69
	L37.85,12.06z M32.85,15.35l0.65,2.22c0.39,1.34,1.1,2.58,2.79,2.09c1.69-0.49,1.62-1.92,1.23-3.26l-0.65-2.22L32.85,15.35z"/>
<path d="M41.56,25.58l0.38,1.55l-11.3,8.45l-0.48-1.99l2.81-2.02l-1.46-6l-3.42-0.49l-0.48-1.99L41.56,25.58z M34.31,30.58
	l5.22-3.75l-0.01-0.04l-6.37-0.98L34.31,30.58z"/>
<path d="M43.64,34.72l0.84,4.48c0.61,3.26-1.2,4.46-2.8,4.75c-1.62,0.3-3.38-0.62-3.95-2.5l-5.14,4.71L32.19,44l5.01-4.29
	l-0.36-1.93l-5.62,1.05l-0.32-1.73L43.64,34.72z M38.35,37.5l0.42,2.27c0.26,1.37,0.84,2.68,2.57,2.35c1.73-0.32,1.8-1.75,1.54-3.12
	l-0.42-2.27L38.35,37.5z"/>
<path d="M46.25,50.27l0.21,1.58l-12.12,7.21l-0.27-2.03l3.01-1.71l-0.81-6.12l-3.35-0.85l-0.27-2.03L46.25,50.27z M38.51,54.47
	l5.58-3.18l0-0.04l-6.22-1.65L38.51,54.47z"/>
<path d="M47.43,59.53l0.18,2.61l-9.52,4.78l0,0.07l10.08,3.41l0.18,2.61L35.41,73.9l-0.12-1.75l10.64-0.73l0-0.04l-10.94-3.64
	l-0.08-1.17l10.34-5.1l0-0.04L34.6,62.17l-0.12-1.75L47.43,59.53z"/>
<path d="M42.08,76.26c3.85,0.06,6.77,2.91,6.71,6.87s-3.08,6.71-6.92,6.65s-6.77-2.91-6.71-6.87C35.22,78.95,38.23,76.2,42.08,76.26
	z M41.9,87.91c2.84,0.04,5.2-1.84,5.25-4.81c0.05-2.97-2.25-4.93-5.09-4.97c-2.84-0.04-5.2,1.84-5.25,4.81S39.06,87.87,41.9,87.91z"
	/>
<path d="M48.22,94.3l-7.94-0.48c-1.61-0.1-3.74,0.58-3.89,3.04c-0.15,2.45,1.89,3.38,3.5,3.48l7.94,0.48l-0.11,1.76l-8.21-0.49
	c-3-0.18-4.94-2.48-4.77-5.32c0.17-2.84,2.37-4.89,5.37-4.71l8.21,0.49L48.22,94.3z"/>
<path d="M47.4,106.22l-0.27,2.29l-11.44,5.82l0,0.04l10.59,1.27l-0.21,1.75l-12.88-1.54l0.27-2.22l11.45-5.9l0-0.04l-10.59-1.27
	l0.21-1.75L47.4,106.22z"/>
<path d="M43.34,123.6l0.72-4.12l1.62,0.29l-1.75,9.96l-1.62-0.29l0.72-4.12l-11.16-1.96l0.3-1.73L43.34,123.6z"/>
<path d="M37.01,130.12l-0.93,4.07l4.07,0.93l-0.32,1.39l-4.07-0.93l-0.93,4.07l-1.39-0.32l0.93-4.07l-4.07-0.93l0.32-1.39l4.07,0.93
	l0.93-4.07L37.01,130.12z"/>
</svg>
