<?xml version="1.0" encoding="utf-8"?>
<!-- Generator: Adobe Illustrator 25.3.0, SVG Export Plug-In . SVG Version: 6.00 Build 0)  -->
<svg version="1.1" id="Layer_1" xmlns="http://www.w3.org/2000/svg" xmlns:xlink="http://www.w3.org/1999/xlink" x="0px" y="0px"
	 viewBox="0 0 101 148" style="enable-background:new 0 0 101 148;" xml:space="preserve">
<path d="M86.57,125.84c0.21-1.12-0.26-2.19-1.01-2.91c-0.83-0.8-2.37-1.27-3.36-0.24c-2.08,2.15,3.81,5.26,0.3,8.9
	c-1.06,1.09-3.44,1.72-5.68-0.44c-1.01-0.98-1.79-2.13-1.66-3.66l1.93,0.06c-0.15,0.79,0.15,1.72,0.87,2.42
	c1.4,1.35,2.63,0.91,3.19,0.33c2.28-2.36-3.69-5.39-0.44-8.75c1.74-1.81,4.24-1.49,6.03,0.24c1.2,1.16,1.95,2.67,1.73,4.17
	L86.57,125.84z"/>
<path d="M71.47,122.95l2.87,3.03l-1.2,1.13l-6.96-7.34l1.2-1.13l2.87,3.03l8.22-7.79l1.21,1.28L71.47,122.95z"/>
<path d="M64.64,118.02l-5.47-6.35l1.25-1.08l4.32,5.01l2.93-2.52l-4.02-4.67l1.25-1.08l4.02,4.67l3.15-2.71l-4.53-5.26l1.25-1.08
	l5.68,6.6L64.64,118.02z"/>
<path d="M57.1,109.1l-1.09-1.38l8.9-7l-3.68-4.68l1.3-1.02l4.77,6.06L57.1,109.1z"/>
<path d="M51.04,101.26l-1.03-1.43l9.18-6.62l-3.48-4.83l1.34-0.96l4.51,6.26L51.04,101.26z"/>
<path d="M43.03,89.73l-0.87-1.34l7.85-11.72l1.12,1.72l-1.98,2.84l3.36,5.18l3.39-0.67l1.12,1.72L43.03,89.73z M48.21,82.61
	l-3.68,5.27l0.02,0.03l6.33-1.18L48.21,82.61z"/>
<path d="M33.37,73.6l-0.76-1.4l8.75-11.07l0.98,1.8l-2.2,2.67l2.95,5.42l3.43-0.4l0.98,1.8L33.37,73.6z M39.09,66.91l-4.08,4.97
	l0.02,0.03l6.4-0.68L39.09,66.91z"/>
<path d="M29,65.33l-1.96-4.12c-1.43-2.99,0.01-4.62,1.48-5.32c1.49-0.71,3.42-0.27,4.46,1.4l3.76-5.87l0.95,1.99l-3.74,5.44
	l0.84,1.77l5.16-2.46l0.76,1.59L29,65.33z M33.41,61.28l-0.99-2.08c-0.6-1.26-1.5-2.37-3.08-1.62c-1.59,0.76-1.29,2.16-0.69,3.41
	l0.99,2.08L33.41,61.28z"/>
<path d="M24.68,51.95l1.62,3.85l-1.52,0.64l-3.93-9.32l1.52-0.64L24,50.33l10.43-4.4l0.68,1.62L24.68,51.95z"/>
<path d="M26.32,43.43c-3.62,1.29-7.36-0.35-8.69-4.08c-1.33-3.73,0.52-7.37,4.15-8.66c3.62-1.29,7.36,0.35,8.69,4.08
	C31.8,38.49,29.95,42.13,26.32,43.43z M22.4,32.45c-2.67,0.96-4.22,3.55-3.22,6.35c1,2.8,3.84,3.83,6.51,2.87
	c2.67-0.96,4.22-3.55,3.22-6.35C27.91,32.53,25.08,31.5,22.4,32.45z"/>
<path d="M14.86,30.02l-0.52-1.68l12.4-3.81l0.52,1.68L14.86,30.02z"/>
<path d="M23.09,21.77c0.76-0.85,0.9-2.01,0.63-3.02c-0.3-1.11-1.38-2.3-2.76-1.93c-2.88,0.78,0.58,6.47-4.31,7.79
	c-1.47,0.4-3.84-0.29-4.65-3.3c-0.37-1.36-0.44-2.75,0.46-4l1.63,1.04c-0.54,0.6-0.76,1.55-0.49,2.53c0.51,1.88,1.79,2.13,2.57,1.92
	c3.17-0.86-0.4-6.52,4.11-7.74c2.42-0.66,4.4,0.9,5.05,3.3c0.44,1.61,0.3,3.3-0.65,4.47L23.09,21.77z"/>
</svg>
