<?xml version="1.0" encoding="utf-8"?>
<!-- Generator: Adobe Illustrator 25.3.0, SVG Export Plug-In . SVG Version: 6.00 Build 0)  -->
<svg version="1.1" id="Layer_1" xmlns="http://www.w3.org/2000/svg" xmlns:xlink="http://www.w3.org/1999/xlink" x="0px" y="0px"
	 viewBox="0 0 67 58" style="enable-background:new 0 0 67 58;" xml:space="preserve">
<path d="M46.55,35.41l0.38,8.91L45,43.16l-0.1-6.71l-6.06,3.01L37,38.36l8.04-3.85l2.85-4.75l1.51,0.91L46.55,35.41z"/>
<path d="M35.37,37.27l-3.8-2.53c-2.76-1.84-2.35-3.97-1.45-5.33c0.91-1.36,2.72-2.55,5.48-0.71l2.33,1.56l3.18-4.76l1.46,0.98
	L35.37,37.27z M37.08,31.54l-1.92-1.28c-1.16-0.77-2.5-1.27-3.48,0.19c-0.98,1.46,0,2.51,1.16,3.28l1.92,1.28L37.08,31.54z"/>
<path d="M25.99,30.89l-6.57-4.83l0.98-1.33l5.15,3.79l2.41-3.28l-4.8-3.53l0.98-1.33l4.79,3.53l3.33-4.51l1.42,1.04L25.99,30.89z"/>
</svg>
