<svg id="Capa_1" data-name="Capa 1" xmlns="http://www.w3.org/2000/svg" viewBox="0 0 544.78 544.79"><defs><style>.cls-1,.cls-2{font-size:30px;font-family:AvenirLTStd-Medium, Avenir LT Std;font-weight:500;}.cls-1{fill:#000;}</style></defs><text class="cls-1" transform="translate(208.11 33.09) rotate(-12.54)">A</text><text class="cls-1" transform="matrix(0.99, -0.13, 0.13, 0.99, 228.33, 28.58)">U</text><text class="cls-1" transform="matrix(1, -0.05, 0.05, 1, 248.85, 25.75)">D</text><text class="cls-1" transform="matrix(1, 0.02, -0.02, 1, 270.72, 24.84)">I</text><text class="cls-1" transform="matrix(1, 0.06, -0.06, 1, 278.86, 24.8)">B</text><text class="cls-1" transform="matrix(0.99, 0.13, -0.13, 0.99, 297.36, 26.02)">L</text><text class="cls-1" transform="translate(312.49 27.95) rotate(11.37)">E</text><text class="cls-1" transform="translate(330.16 31.64) rotate(14.42)"> </text><text class="cls-1" transform="translate(338.1 33.67) rotate(16.33)"> </text><text class="cls-1" transform="translate(345.92 35.96) rotate(18.23)"> </text><text class="cls-1" transform="translate(353.71 38.53) rotate(20.14)"> </text><text class="cls-1" transform="translate(361.39 41.34) rotate(22.05)"> </text><text class="cls-1" transform="matrix(0.9, 0.43, -0.43, 0.9, 368.93, 44.18)">C</text><text class="cls-1" transform="translate(387.64 52.95) rotate(30.65)">O</text><text class="cls-1" transform="translate(408.7 65.51) rotate(35.87)">C</text><text class="cls-1" transform="translate(425.51 77.64) rotate(40.64)">A</text><text class="cls-1" transform="matrix(0.72, 0.69, -0.69, 0.72, 441.19, 91.34)"> </text><text class="cls-1" transform="matrix(0.68, 0.73, -0.73, 0.68, 447.12, 96.78)">C</text><text class="cls-1" transform="matrix(0.61, 0.79, -0.79, 0.61, 461.25, 111.93)">O</text><text class="cls-1" transform="matrix(0.54, 0.84, -0.84, 0.54, 476.07, 131.52)">L</text><text class="cls-1" transform="translate(484.43 144.22) rotate(61.24)">A</text><text class="cls-2" transform="matrix(0.43, 0.9, -0.9, 0.43, 494.29, 162.55)"> </text><text class="cls-1" transform="translate(497.8 169.94) rotate(66.49)"> </text><text class="cls-1" transform="translate(501.06 177.43) rotate(68.4)"> </text><text class="cls-1" transform="matrix(0.34, 0.94, -0.94, 0.34, 504.08, 185.04)"> </text><text class="cls-1" transform="translate(506.84 192.74) rotate(72.21)"> </text><text class="cls-1" transform="translate(509.33 200.51) rotate(74.12)"> </text><text class="cls-1" transform="translate(511.57 208.37) rotate(76.02)"> </text><text class="cls-1" transform="translate(513.64 216.22) rotate(78.88)">S</text><text class="cls-1" transform="translate(516.82 232.24) rotate(82.8)">P</text><text class="cls-1" transform="matrix(0.05, 1, -1, 0.05, 519.02, 249.54)">R</text><text class="cls-1" transform="translate(519.83 267.63) rotate(89.07)">I</text><text class="cls-1" transform="translate(520.02 275.69) rotate(92.71)">T</text><text class="cls-1" transform="translate(519.26 292.54) rotate(96.71)">E</text><text class="cls-1" transform="translate(517.02 310.47) rotate(99.75)"> </text><text class="cls-1" transform="matrix(-0.2, 0.98, -0.98, -0.2, 515.64, 318.52)"> </text><text class="cls-1" transform="translate(513.99 326.55) rotate(103.55)"> </text><text class="cls-1" transform="translate(512.08 334.48) rotate(105.45)"> </text><text class="cls-1" transform="matrix(-0.3, 0.95, -0.95, -0.3, 509.9, 342.38)"> </text><text class="cls-1" transform="translate(507.47 350.17) rotate(109.27)"> </text><text class="cls-1" transform="translate(504.91 357.84) rotate(112.19)">F</text><text class="cls-1" transform="matrix(-0.44, 0.9, -0.9, -0.44, 499.29, 371.99)">A</text><text class="cls-1" transform="translate(490.22 390.61) rotate(121.3)">N</text><text class="cls-1" transform="matrix(-0.59, 0.81, -0.81, -0.59, 477.92, 410.61)">T</text><text class="cls-1" transform="translate(469.73 422.16) rotate(129.67)">A</text><text class="cls-1" transform="translate(456.31 438.08) rotate(132.99)"> </text><text class="cls-1" transform="translate(450.74 444.05) rotate(134.87)"> </text><text class="cls-1" transform="matrix(-0.73, 0.69, -0.69, -0.73, 444.98, 449.84)"> </text><text class="cls-1" transform="matrix(-0.75, 0.66, -0.66, -0.75, 439.02, 455.46)"> </text><text class="cls-1" transform="translate(432.89 460.86) rotate(140.52)"> </text><text class="cls-1" transform="matrix(-0.8, 0.6, -0.6, -0.8, 426.68, 466.09)">L</text><text class="cls-1" transform="matrix(-0.84, 0.54, -0.54, -0.84, 414.57, 475.28)">A</text><text class="cls-1" transform="matrix(-0.89, 0.46, -0.46, -0.89, 397.16, 486.49)">D</text><text class="cls-1" transform="translate(377.79 496.59) rotate(156.92)">Y</text><text class="cls-1" transform="matrix(-0.95, 0.33, -0.33, -0.95, 361.2, 503.63)">S</text><text class="cls-1" transform="translate(345.88 509.14) rotate(165.68)">O</text><text class="cls-1" transform="matrix(-0.99, 0.17, -0.17, -0.99, 322.05, 515.07)">F</text><text class="cls-1" transform="translate(305.39 517.87) rotate(174.4)">T</text><text class="cls-1" transform="translate(288.51 519.41) rotate(177.28)"> </text><text class="cls-1" transform="translate(280.31 519.8) rotate(179.07)"> </text><text class="cls-1" transform="translate(272.17 519.93) rotate(-179)"> </text><text class="cls-1" transform="matrix(-1, -0.05, 0.05, -1, 263.97, 519.79)"> </text><text class="cls-1" transform="translate(255.82 519.38) rotate(-175.26)"> </text><text class="cls-1" transform="translate(247.76 518.91) rotate(-171.92)">A</text><text class="cls-1" transform="matrix(-0.98, -0.21, 0.21, -0.98, 228.59, 516.21)">V</text><text class="cls-1" transform="translate(210.47 512.26) rotate(-163.43)">E</text><text class="cls-1" transform="translate(193.24 507.27) rotate(-158.6)">N</text><text class="cls-1" transform="matrix(-0.9, -0.44, 0.44, -0.9, 171.44, 498.62)">E</text><text class="cls-1" transform="matrix(-0.87, -0.49, 0.49, -0.87, 155.28, 490.52)"> </text><text class="cls-1" transform="matrix(-0.86, -0.52, 0.52, -0.86, 148.14, 486.53)"> </text><text class="cls-1" transform="translate(141.16 482.32) rotate(-146.97)"> </text><text class="cls-1" transform="translate(134.29 477.85) rotate(-145.08)"> </text><text class="cls-1" transform="matrix(-0.8, -0.6, 0.6, -0.8, 127.58, 473.17)"> </text><text class="cls-1" transform="translate(121.03 468.27) rotate(-141.3)"> </text><text class="cls-1" transform="matrix(-0.75, -0.66, 0.66, -0.75, 114.65, 463.32)">P</text><text class="cls-1" transform="matrix(-0.7, -0.71, 0.71, -0.7, 103.15, 453.29)">A</text><text class="cls-1" transform="matrix(-0.63, -0.77, 0.77, -0.63, 88.61, 438.59)">N</text><text class="cls-1" transform="translate(73.79 420.37) rotate(-124.75)">T</text><text class="cls-1" transform="translate(64.16 406.53) rotate(-120.72)">E</text><text class="cls-1" transform="matrix(-0.44, -0.9, 0.9, -0.44, 54.88, 391.17)">N</text><text class="cls-1" transform="translate(44.71 370.02) rotate(-111.1)">E</text><text class="cls-1" transform="matrix(-0.31, -0.95, 0.95, -0.31, 38.32, 353.13)"> </text><text class="cls-1" transform="translate(35.79 345.35) rotate(-106.14)"> </text><text class="cls-1" transform="matrix(-0.25, -0.97, 0.97, -0.25, 33.51, 337.5)"> </text><text class="cls-1" transform="translate(31.5 329.6) rotate(-102.34)"> </text><text class="cls-1" transform="translate(29.75 321.59) rotate(-100.43)"> </text><text class="cls-1" transform="translate(28.27 313.56) rotate(-98.54)"> </text><text class="cls-1" transform="matrix(-0.12, -0.99, 0.99, -0.12, 27.05, 305.47)"> </text><text class="cls-1" transform="translate(25.9 297.51) rotate(-93.2)">D</text><text class="cls-1" transform="translate(24.83 275.64) rotate(-89.07)">I</text><text class="cls-1" transform="matrix(0.05, -1, 1, 0.05, 24.8, 267.49)">S</text><text class="cls-1" transform="translate(25.5 251.21) rotate(-82.41)">N</text><text class="cls-1" transform="translate(28.7 227.96) rotate(-77.6)">E</text><text class="cls-1" transform="translate(32.54 210.42) rotate(-73.41)">Y</text><text class="cls-1" transform="translate(37.84 193.09) rotate(-70.35)"> </text><text class="cls-1" transform="translate(40.39 185.45) rotate(-67.18)">X</text><text class="cls-1" transform="matrix(0.46, -0.89, 0.89, 0.46, 47.71, 167.87)">D</text><text class="cls-1" transform="matrix(0.52, -0.86, 0.86, 0.52, 58.03, 148.53)"> </text><text class="cls-1" transform="translate(62.25 141.51) rotate(-57.07)"> </text><text class="cls-1" transform="translate(66.69 134.65) rotate(-55.18)"> </text><text class="cls-1" transform="translate(71.35 127.95) rotate(-53.29)"> </text><text class="cls-1" transform="translate(76.23 121.39) rotate(-51.41)"> </text><text class="cls-1" transform="translate(81.35 114.99) rotate(-49.52)"> </text><text class="cls-1" transform="translate(86.65 108.77) rotate(-47.64)"> </text><text class="cls-1" transform="matrix(0.71, -0.71, 0.71, 0.71, 92.04, 102.72)">L</text><text class="cls-1" transform="matrix(0.76, -0.65, 0.65, 0.76, 102.75, 91.88)">A</text><text class="cls-1" transform="translate(116.76 79.72) rotate(-36.85)">Y</text><text class="cls-1" transform="translate(131.34 68.97) rotate(-33.96)">´</text><text class="cls-1" transform="matrix(0.85, -0.52, 0.52, 0.85, 137.05, 64.98)">S</text><text class="cls-1" transform="translate(151.14 56.54) rotate(-28.41)"> </text><text class="cls-1" transform="matrix(0.89, -0.45, 0.45, 0.89, 158.33, 52.65)"> </text><text class="cls-1" transform="translate(165.64 49) rotate(-24.61)"> </text></svg>