<?xml version="1.0" encoding="utf-8"?>
<!-- Generator: Adobe Illustrator 25.3.1, SVG Export Plug-In . SVG Version: 6.00 Build 0)  -->
<svg version="1.1" id="Capa_1" xmlns="http://www.w3.org/2000/svg" xmlns:xlink="http://www.w3.org/1999/xlink" x="0px" y="0px"
	 viewBox="0 0 531 215" style="enable-background:new 0 0 531 215;" xml:space="preserve">
<style type="text/css">
	.st0{fill:#1F1713;}
</style>
<g>
	<path class="st0" d="M110.7,195.3l0.1,2.1l0.5,4l0.1,2l-0.1,1l-0.1,1.4l-0.6,1l-0.8,0.6l-1.4,0.3l-2,0.1h-2.1l-5.2-0.4l-2.2-0.1
		h-3.2l-2.3-0.1l-4.8-0.6l-0.9-0.3l-0.5-0.6l-0.1-1.3l-0.1-1.8l-0.1-2l0.3-4.4V184l-0.4-8.2v-2.1l0.5-8.1v-10.1l-0.3-1.6l-0.8-0.5
		h-0.8l-0.9,1.2l-1.3,1.8l-5.5,6.2l-7.9,9.5l-5.2,6.5l-1.2,1l-0.9,0.4h-1l-1.4-0.3l-1.6-0.4l-1.4-1l-6.5-7.8l-4.8-6.4l-1.3-1.6
		l-6.8-7.5l-1.7-1.7l-0.8,0.3l-0.3,1.4l-0.4,8.2v2.1l0.5,8.2v2.1l0.3,8.2v2.1l-0.1,8.1v2l0.1,3.9l-0.1,2.1l-0.1,2.2l-0.3,1.7
		l-0.5,0.8l-0.9,0.3l-3.4,0.4l-2.1,0.1l-5.1-0.4l-2.1,0.1l-6.2,0.5h-3l-1.6-0.3l-0.8-0.8l-0.3-0.9l-0.3-1.3v-3l0.3-4v-20l-0.3-6.9
		v-2.1l0.1-6.9l-0.1-2.1l-0.4-7v-2.1l0.4-6.9l0.1-2.1l-0.5-6.9l0.1-2.1l0.5-6.9v-2.1l-0.5-4.8v-2.1l0.3-1.7l0.5-0.9l0.8-0.6l1-0.3
		l1.7-0.1l2.2,0.3l2.9,0.6h2.1l4-0.4l2.2-0.3L26,113l4.9,0.1h1.7l1.4,0.6l1.3,1.4l4.6,5.1l1.3,1.7l3.8,5.3l1.3,1.7l4.3,5.1l1.3,1.8
		l4,5.1l1.3,1.4l1.2,0.6h1.3l1.2-0.6l1.2-1.3l3.9-5.2l1.3-1.8l4.2-5.1l1.3-1.7l4.6-5.1l1.3-1.7l3.4-4.2l1-1.4l1-1l1.3-0.6l1.7,0.1
		l6.9,0.4l6.1,0.1h2.1l3.9-0.3l2.2,0.1l1.6,0.3l0.9,0.3l0.8,0.6l0.3,1l-0.1,1.6l-0.5,5.9l-0.1,2.1l0.3,6.9v2.1l-0.1,6.9v2.1l0.1,6.9
		v2.1l0.5,7v2.1l-0.5,6.9v2.1l0.4,6.9v2.1l-0.5,6.9v2.1L110.7,195.3z"/>
	<path class="st0" d="M222.3,203.5l0.4,1.8l-0.9,1.4l-1.4,0.6l-1.6,0.3H217l-2.9-0.3l-1.9-0.1h-5.7l-7.8,0.5l-1.6-0.5l-0.8-1
		l-0.6-1.4l-3.9-10.9l-0.9-1.3l-1.1-0.3l-1.5-0.1l-7.5-0.5h-2l-9.4-0.3l-7.5-0.1h-1.9l-1.9,0.1h-5.8l-1.6,0.3l-1,0.6l-0.8,1.6
		l-2.9,8.9l-0.8,2.1l-1.4,1.7l-1.9,0.8l-2-0.1l-7.3-0.4h-2l-7.8,0.5l-1.6,0.1l-1.5-0.8l-1-1.4l0.1-1.7l0.2-1l0.8-2.1l1.8-4l0.8-2
		l3.1-7.3l0.8-1.8l3.3-7.3l0.8-2l2.9-7l0.8-2l3.4-7.3l0.8-1.8l4.5-10.7l3.5-7.8l0.9-2.1l2.8-5.9l0.9-2.1l2.4-6l0.8-2l2.3-5.3
		l0.6-1.4l1.3-0.8l1.9-0.4l5.8-0.3h9.8l5.8,0.1l2.1,0.4l1.4,1l0.6,1.7l1.8,5.1l0.8,2l3.1,6.1l0.8,1.8l2.8,6.4l0.8,1.8l2.3,6.6
		l0.8,1.8l2.8,6.2l0.8,1.8l2.8,6.4l0.8,1.8l2.5,6.5l0.8,1.8l3.9,8.1l3,6.1l0.9,1.8l3.4,8.2L222.3,203.5z M180.3,166.8l-0.5-1.7
		l-2.8-8.9l-0.6-2l-2.5-7.7l-0.6-1.7L172,144l-1.6-0.4L169,144l-1.3,1.3l-3.4,8.9l-0.8,2l-3.3,8.7l-0.4,2l0.4,1.6l1.4,0.6l1.8,0.3
		h7.9l5.9,0.4l1.6-0.5l1-1L180.3,166.8z"/>
	<path class="st0" d="M320.5,206.6l-1.7,0.5h-9.1l-7.2-0.1h-2.1l-5.9,0.3h-1.7l-1.2-0.5l-1-1l-4.2-5.9l-1.2-1.6l-4.2-5.6l-1.2-1.6
		l-3.6-6l-1.2-1.6L271,178l-0.9-1l-0.8-0.4l-1.6-0.1l-4.2-0.3l-1.7,0.1l-1,0.8l-0.4,1.7l-0.3,7.1l0.1,2.1l0.5,7.3l0.1,2.1l0.1,3.1
		v2.1l-0.1,2.1l-0.3,1.6l-0.6,0.6l-1.4,0.4h-2.1l-6.2-0.4l-6,0.4h-2.1l-6-0.4l-1.6-0.3l-0.8-0.5l-0.3-1.3l-0.1-1.8l-0.1-2l0.3-3.4
		l0.1-2.1l0.5-7v-2.1l-0.4-7l-0.1-2.1l-0.1-6.9v-2.1l0.4-7v-2.1l-0.4-7v-2.1l0.4-7v-2.1l0.3-6.9v-2.1l-0.1-7V123l-0.3-4.3l0.1-2
		l0.1-0.8l0.4-1.7l0.8-1l1.6-0.4l1-0.1l2-0.1l5.9,0.3l15.5,0.5l8.9-0.5h2.1l8.6,0.5h4.9l2.2,0.1l2,0.4l2.7,0.8l2,0.6l2,0.8l2.1,0.8
		l2,0.9l1.7,1l2.5,1.7l1.4,1.2l1.3,1.3l1.3,1.6l1.8,2.6l1.2,1.7l1.6,2.5l0.9,1.8l0.9,2l0.6,2.1l0.4,2.1l0.1,2.1l0.3,2.9v2.1
		l-0.1,2.1l-0.3,2.2l-0.4,2.2l-0.5,2.1l-0.8,2l-0.9,2l-1.2,2l-1.2,1.7L310,164l-1.2,1.4l-2.1,2.1l-1.4,1.2l-2.6,1.4l-1.6,0.9
		l-1.7,0.9l-1.7,0.4l-1,0.4l0.5,1l4.7,6.6l1.2,1.6l4.7,6.4l1.3,1.6l4.7,6.5l1.3,1.6l4,4.7l1.2,1.4l0.6,1.4L320.5,206.6z M281,156.5
		l2.9-0.5l1.7-0.6l1.6-0.9l1.3-1.6l0.9-2l0.5-2.1l0.1-2.1l-0.1-2.2l-0.3-2.2l-0.5-2l-0.9-2l-1.2-1.6l-1.4-1.2l-1.8-0.8l-2.9-0.6
		l-2.1-0.3l-6.5-0.1h-2.1l-6.6,0.4l-1.6,0.1l-0.9,0.4l-0.8,0.8l-0.1,1.4l0.1,3l0.3,2.1l0.3,2.2l0.1,2.2l-0.3,7.2l0.1,1.4l0.3,0.8
		l0.9,0.4l1.6,0.3l6.8,0.5h2.1L281,156.5z"/>
	<path class="st0" d="M412.6,195.3l-1,1l-2.3,2.1l-1.6,1.2l-2.5,1.8l-1.6,1l-2.6,1.4l-1.7,0.9l-3,1.4l-2,0.6l-2.2,0.6l-2.2,0.4
		l-3.2,0.6l-4.5,0.5l-2.3,0.1l-3.2,0.3h-6.8l-2.2-0.1l-2.2-0.3l-2.2-0.4l-2.2-0.5l-2-0.6l-5.9-1.6l-2.9-1l-1.7-0.8l-2.5-1.4
		l-1.6-1.2l-1.7-1.2l-1.8-1.2l-3.4-2.9l-1.6-1.6l-1.4-1.7l-1.4-2l-1.2-1.8l-1-1.8l-0.9-1.8l-1.3-2.7l-2-5.5l-0.9-2.6l-1.3-3.9
		l-0.3-2l-0.1-3l0.1-2l0.1-2.1v-2.2l0.3-4.4l0.1-2.1l0.4-2l0.5-2.9l0.5-2l0.6-2l0.6-1.8l0.9-2.6l0.9-1.8l0.9-2l1-2l1.2-2l1.2-1.8
		l1.3-1.7l1.4-1.8l1.6-1.7l1.6-1.4l1.7-1.4l1.6-1.3l4.2-2.9l1.7-1l1.8-1l3.9-1.8l2.2-0.8l2.1-0.6l4.4-1l2.2-0.4l2.2-0.3l4-0.3
		l2.9-0.3l2,0.1l2.9,0.1l4.8,0.6l1.8,0.4l3,0.5l4.5,1.3l1.8,0.8l2.9,1.7l1.8,1l3.4,2.3l4,2.9l1.4,1l0.8,0.6l0.9,0.9l0.3,1l-0.1,1
		l-0.8,1l-1.2,1.4l-1.4,1.4l-1.4,1.3l-1.4,1.2l-1.4,1.4l-2.2,2.6l-1.4,1.6l-0.7,0.6l-1.2,1l-0.9,0.4l-0.9,0.1l-0.9-0.3l-1.4-0.8
		l-2.5-1.8l-1.7-0.9l-2.9-1.3l-1.8-0.6l-2.9-0.8l-2-0.4l-3.3-0.3h-2.1l-2.9,0.3l-2.1,0.5l-2.9,0.9l-2,0.8l-1.7,0.6l-2.6,1.3
		l-1.8,1.3l-0.9,0.8l-1.6,1.7l-1.2,1.8l-0.9,1.7L353,148l-0.8,2l-0.7,2.1l-0.4,2.2l-0.3,2l-0.3,3.9v2.1l0.1,3.2l0.1,2l0.7,3l0.7,2
		l0.9,2.2l1,2l2,2.9l1.4,1.6l2.5,2.1l1.7,1.2l2.6,1.3l2,0.8l2.9,0.8l2.1,0.4l3.1,0.1h3l1.8-0.4l1-0.3l2-0.6l3.2-1.2l2.1-0.9l2-0.9
		l1.7-0.9l2.5-1.6l1.7-1.3l1.3-0.9l0.8-0.3l1.2,0.3l1.4,0.9l1.4,1.3l0.5,0.8l1.3,1.4l2.1,2.6l1.3,1.6l3.5,4l1.2,1.6l0.7,0.6l0.7,1.2
		L412.6,195.3L412.6,195.3z"/>
	<path class="st0" d="M523,159.1l-0.1,2.1l-0.3,3l-0.3,2l-0.8,3.9l-0.3,3l-0.3,2l-0.4,2.1l-0.5,2l-1.3,2.7l-0.9,1.8l-3.5,5.9
		l-1.2,1.7l-1.3,1.7l-1.3,1.4l-2.1,2.2l-1.4,1.3l-1.7,1.3l-1.6,1.2l-2.3,1.6l-1.7,1l-2,1l-1.8,0.8l-2.6,1l-2,0.5l-4.2,1.3l-2.2,0.6
		l-2.1,0.5l-2.2,0.5l-2.2,0.4l-2.2,0.1h-7l-4.4-0.3l-4.3-0.5l-1.8-0.4l-2-0.5l-7-2.3l-2.1-0.6l-2.2-0.9l-4.2-1.8l-2-1l-2-1.2
		l-1.7-1.3l-1.7-1.4l-1.6-1.7l-1.4-1.7l-3.5-3.5l-1.3-1.6l-1.3-1.7l-1-1.7l-1-2.6l-2-5.9l-0.8-2.7l-0.4-2l-0.4-2.1l-0.4-2l-0.4-2.9
		l-0.1-2l-0.1-2.2v-2.2l0.1-2.2l0.1-2.3l0.3-2.2l0.4-2.2l0.5-2.2l0.7-2.2l0.7-2l0.8-2.1l0.9-3l0.9-2.1l0.5-1.2l1-2l1.8-2.9l1.3-1.8
		l0.7-1l1.6-1.6l2.2-1.8l1.7-1.3l1.7-1.2l3.9-2.6l1.7-1l1.8-1l1.8-0.9l2.7-1.2l1.8-0.6l2-0.6l2-0.5l4.9-0.9l2-0.4l6.5-0.8l4.2-0.3
		l3.9,0.3l3.1,0.1l2.2,0.3l2.2,0.4l2.2,0.5l2.2,0.4l2.1,0.5l2,0.5l2,0.6l2.7,1l1.8,0.8l4.3,2.5l1.7,1.2l1.7,1.3l2.2,2.1l1.4,1.3
		l1.4,1.4l1.2,1.6l1.8,2.5l1,1.7l0.9,1.7l1,1.7l1.4,2.6l1,1.7l0.9,2l0.7,1.8l0.7,3l0.8,3.9l0.3,2.2l0.4,2.2L523,159.1z M491.3,176
		l1.2-1.8l1.3-2.9l0.8-2l0.7-3l0.3-2l0.3-3.1v-2.2l-0.1-2.2l-0.1-2.1l-0.8-3.9l-0.5-1.8l-1.4-2.9l-1-1.7l-1.8-2.3l-1.3-1.4l-2-2.1
		l-1.4-1.2l-3.4-2l-1.8-0.8l-2.1-0.6l-2.1-0.4l-4.2-0.3l-2,0.1l-2.9,0.1l-2,0.4l-3.4,0.9l-2.1,0.8l-3,1.6l-1.8,1.2l-2.1,1.8
		l-1.4,1.6l-1.4,2l-1,1.7l-0.4,0.8l-1.2,2.7l-0.7,2L446,152l-0.4,1.8l-0.3,1.8l-0.1,1.8l-0.1,2v2l0.1,2.1l0.4,2.1l0.1,1.2l0.5,2
		l0.3,0.9l0.7,1.8l0.5,1l1,1.8l0.7,1l1.4,1.8l0.8,0.9l1.6,1.6l2.6,2.2l1.8,1.2l2.1,1l2,0.8l2.7,0.9l2,0.4l3.3,0.4l2.2,0.1l3.2-0.3
		l2.1-0.3l2.9-0.6l1.8-0.8l2.9-1.8l1.6-1.2l2.1-2.1l1.3-1.4L491.3,176z"/>
	<path class="st0" d="M222.3,101.3l0.4,1.9l-0.9,1.5l-1.4,0.7l-1.7,0.3h-1.8l-3-0.3l-1.9-0.1h-5.8l-8,0.5l-1.7-0.5l-0.8-1.1
		l-0.6-1.5l-4-11.1l-0.9-1.3l-1.1-0.3l-1.5-0.1l-7.7-0.5h-2l-9.6-0.3l-7.7-0.1h-1.9l-1.9,0.1h-5.9l-1.7,0.3l-1,0.7l-0.8,1.6l-3,9
		l-0.8,2.1l-1.4,1.7l-1.9,0.8l-2-0.1l-7.4-0.4h-2l-8,0.5l-1.7,0.1l-1.5-0.8l-1-1.5l0.1-1.7l0.3-1.1l0.8-2.1l1.8-4.1l0.8-2l3.2-7.4
		l0.8-1.9l3.3-7.4l0.8-2l3-7.2l0.8-2l3.5-7.4l0.8-1.9L141,44l3.6-8l0.9-2.1l2.8-6l0.9-2.1l2.4-6.1l0.8-2l2.3-5.4l0.6-1.5l1.3-0.8
		l1.9-0.4l5.9-0.3h10l5.9,0.1l2.2,0.4l1.4,1.1l0.6,1.7l1.8,5.2l0.8,2l3.2,6.2l0.8,1.9l2.8,6.5l0.8,1.9l2.3,6.8l0.8,1.9l2.8,6.4
		l0.8,1.9l2.8,6.5l0.8,1.9l2.6,6.6l0.8,1.9l4,8.2l3.1,6.2l0.9,1.9l3.5,8.4L222.3,101.3z M179.5,63.9l-0.5-1.7l-2.8-9l-0.6-2
		l-2.6-7.8l-0.6-1.7l-1.3-0.9l-1.7-0.4l-1.4,0.4l-1.3,1.3l-3.5,9l-0.8,2l-3.3,8.9l-0.4,2l0.4,1.6l1.4,0.7l1.8,0.3h8.1l6,0.4l1.7-0.5
		l1-1.1L179.5,63.9z"/>
	<path class="st0" d="M109.3,92.8l0.1,2.1l0.3,3.3l0.1,2l-0.1,1.9l-0.7,1.7l-1,0.9l-1.5,0.1l-2.2,0.3l-7.3-0.4H95l-7.2,0.5h-2.2
		l-1.9-0.4l-0.8-1.1l-0.3-1.9l-0.5-8.6L82,91.2l0.3-8.6v-2.1L82,72v-1.9l-0.5-1.1l-1.5-0.5h-3.2L71.3,69l-2.2,0.1l-10.8-0.3
		l-20.2-0.4l-1.8,0.1L35.1,69l-0.7,1.2L34.3,72l0.1,8.5v2.1l-0.3,8.6l0.1,2.1l0.5,5.7v3l-0.5,1.9l-1.2,1.1l-1.8,0.4l-2,0.1l-2-0.1
		l-5.7-0.5l-2.2-0.1l-6.4,0.4l-2.2-0.1H9.8l-1.5-0.3l-1.1-0.5l-0.5-0.7l-0.3-1.5l-0.1-1.2v-2.1l0.3-4V83.7l0.3-7v-2.1l0.1-7v-2.1
		l-0.4-7v-2.1l-0.1-7v-9.1l0.1-2.1l0.4-7l0.1-2.1l-0.1-7l-0.1-2.1l-0.7-4.5v-2.8l0.5-1.6l1.2-0.9l1.8-0.4l2-0.1h2l5.7,0.3h2.2
		L27,9.1h2.2l2,0.1l1.8,0.3l1.1,1.1l0.5,1.7l0.1,0.9v2l-0.4,6l-0.1,2.1L34,32v10.9l0.1,1.6l0.4,1.1l0.7,0.5l1.4,0.1l1.9,0.1h1.9
		l18.1-0.8l2-0.1l8.7,0.3l8,0.5h2L80,46l1.5-0.8l0.5-1.1l0.1-1.5l0.5-8.6V32l-0.3-8.6v-2.1l-0.1-8.6l0.4-2.1l1.1-1.2L85.5,9h2.2
		l7.3,0.4h2.2l6.1-0.4l2.2,0.1h1.2l1.8,0.3l1.1,1.1l0.5,1.9v2l-0.4,5.3l-0.1,2.1l0.4,7v2.1l-0.3,7v2.1l0.5,7v2.1l-0.5,7v2.1l-0.3,7
		v2.1l0.1,7v2.1l-0.1,7L109.3,92.8L109.3,92.8z"/>
	<path class="st0" d="M318.5,75.9l-0.1,2.1l-0.3,3.5l-0.4,2l-0.9,2.8l-0.8,1.9l-1.3,2.5l-1.2,1.7l-2.1,2.5l-1.5,1.5l-3.3,2.4
		l-1.7,1.1l-1.9,0.9l-2,0.9l-2.1,0.7l-2,0.7l-6,1.2l-3,0.4l-2.1,0.1l-3.2,0.3h-2.1l-7.3,0.3h-11.5l-7.4-0.4h-2.1l-7.3,0.3h-2l-5-0.1
		l-2.1-0.3l-1.9-0.3l-1.1-0.4l-0.7-0.7l-0.3-1.5l-0.1-1.9l0.1-2v-2.1l0.1-1.1v-2.3l0.4-7l-0.1-2.1l-0.1-3.3l-0.1-2l-0.1-1.9v-2
		l0.1-3.3v-5.8l0.5-7V56l-0.3-7v-2.1l-0.1-7l0.1-2.1l0.4-7l0.1-2.1l-0.5-7l-0.1-2.1l-0.4-4v-3.1l0.5-1.7l1.3-0.8l1.9-0.3l2.1-0.1
		L251.9,9l11.5,0.7l7.2-0.3h2.1l7.3,0.1h2.1l7.7,0.5l2.3,0.3l2.3,0.4l5,1.6l2,0.9l2.5,1.3l1.7,1.2l2.3,1.9l1.3,1.5l1.9,2.3l0.9,1.7
		l1.5,2.5l0.8,1.9l0.7,2l0.4,2.1l0.5,3.4l0.1,2.1l-0.1,2.3l-0.4,2.3l-0.8,3.1l-0.8,1.9l-1.5,2.5l-1.3,1.5l-2.1,2l-1.1,1.1l-0.4,0.9
		l0.4,1.1l1.2,1.3l1.6,1.5l1.6,1.7l2,2.8l1.2,2l0.9,2.1l0.5,1.1l0.7,2.1l0.5,2.3l0.3,2.3L318.5,75.9z M258.1,39.6l0.1,1.1l0.1,2.1
		l0.3,1.5l0.5,0.8l1.1,0.5l1.6,0.1h5.3l2.3-0.1h2.3l3,0.3l4.5,0.3h2.9l1.7-0.4l1.6-0.8l1.3-0.9l0.9-1.1l0.8-1.3l0.4-1.9v-2.3
		l-0.4-1.7l-1.2-1.7l-1.9-1.3l-0.8-0.3l-2-0.5l-0.9-0.1l-2.3-0.3h-1.2l-5.2-0.7h-2l-3.3,0.1l-2.1,0.1h-2.8l-1.3,0.3l-1.2,0.1
		l-0.8,0.4l-0.5,0.7l-0.4,1.7l-0.4,3.2L258.1,39.6z M288.7,82.4l1.1-0.9l0.5-0.8l0.9-2l0.4-2.1l0.1-0.8l-0.1-1.9l-0.4-1.9l-1.1-1.9
		l-0.8-0.9l-1.7-1.7l-2.1-1.2l-2-0.7l-0.9-0.3l-1.9-0.1l-6,0.3l-2.3,0.1h-7.8l-2,0.1l-2.4,0.4l-1.2,0.4l-0.4,0.7l-0.1,1.6v2.3
		l0.1,2.1v2.9l-0.3,2.3V81l0.3,1.5l0.5,0.8l0.9,0.5l1.7,0.3l18.7-0.4l4.5-0.3l2.1-0.4L288.7,82.4z"/>
	<path class="st0" d="M401.5,98.8l-0.1,2.1v1.2l-0.4,1.6l-0.8,0.9l-0.9,0.4l-1.3,0.3h-1.1l-1.9,0.1l-14.7-0.8h-10l-11.9,0.8
		l-7.7-0.5h-9.8l-6.1,0.4h-2l-1.9-0.1l-1.5-0.3l-0.9-0.5l-0.7-0.8l-0.3-1.6v-2.1l0.7-5l0.1-2l-0.5-7v-2.1l0.3-7v-2.1l0.3-16.2v-2.1
		L327.8,40v-2.1l-0.1-7V19.6l-0.3-4v-2l0.1-1.2l0.4-1.7l0.5-0.8l0.9-0.4l1.5-0.3h1.1l2-0.1l6.5,0.4h2.1l9.4-0.1h1.3l0.9,0.5l0.7,0.9
		v11.5l0.3,7.7v2.1l-0.4,7.7V42l0.3,7.7v2.1l0.4,7.7v2.1l-0.8,17.5l0.1,1.3l0.1,0.7l0.3,0.7l0.7,0.5l1.6,0.3l4.5,0.3l4-0.3h2.1
		l19.1-0.3l2.1-0.1l4.5-0.5l2.1-0.1h2l1.6,0.4l0.9,0.8l0.4,0.9l0.1,1.5l0.1,7.4l0.1,2.1L401.5,98.8z"/>
	<path class="st0" d="M522.6,101.3l0.4,1.9l-0.9,1.5l-1.5,0.7l-1.7,0.3H517l-3-0.3l-2-0.1h-6l-8.2,0.5l-1.7-0.5l-0.8-1.1l-0.7-1.5
		l-4.1-11.1l-0.9-1.3l-1.2-0.3l-1.6-0.1l-8-0.5h-2.1l-10-0.3l-8-0.1h-2l-2,0.1h-6.1l-1.7,0.3l-1.1,0.7l-0.8,1.6l-3,9l-0.8,2.1
		l-1.5,1.7l-2,0.8l-2.1-0.1l-7.7-0.4h-2.1l-8.2,0.5l-1.7,0.1l-1.6-0.8l-1.1-1.5l0.1-1.7l0.3-1.1l0.8-2.1l1.9-4.1l0.8-2l3.3-7.4
		l0.8-1.9l3.5-7.4l0.8-2l3-7.2l0.8-2l3.6-7.4l0.8-1.9l4.8-10.9l3.7-8l0.9-2.1l2.9-6l0.9-2.1l2.5-6.1l0.8-2l2.4-5.4l0.7-1.5l1.3-0.8
		l2-0.4l6.1-0.3h10.3l6.1,0.1l2.3,0.4L483,11l0.7,1.7l1.9,5.2l0.8,2l3.3,6.2l0.8,1.9l2.9,6.5l0.8,1.9l2.4,6.8l0.8,1.9l2.9,6.4
		l0.8,1.9l2.9,6.5l0.8,1.9l2.7,6.6l0.8,1.9l4.1,8.2l3.2,6.2l0.9,1.9l3.6,8.4L522.6,101.3z M478.3,63.9l-0.5-1.7l-2.9-9l-0.7-2
		l-2.7-7.8l-0.7-1.7l-1.3-0.9l-1.7-0.4l-1.5,0.4L465,42l-3.6,9l-0.8,2l-3.5,8.9l-0.4,2l0.4,1.6l1.5,0.7l1.9,0.3h8.4l6.2,0.4l1.7-0.5
		l1.1-1.1L478.3,63.9z"/>
</g>
</svg>
