<?xml version="1.0" encoding="utf-8"?>
<!-- Generator: Adobe Illustrator 25.2.0, SVG Export Plug-In . SVG Version: 6.00 Build 0)  -->
<svg version="1.1" id="Capa_1" xmlns="http://www.w3.org/2000/svg" xmlns:xlink="http://www.w3.org/1999/xlink" x="0px" y="0px"
	 viewBox="0 0 874 532" style="enable-background:new 0 0 874 532;" xml:space="preserve">
<style type="text/css">
	.st0{fill:none;}
	.st1{fill:none;stroke:#000000;stroke-width:2;}
	.st2{fill:#FFFFFF;}
	.st3{fill:#241332;}
</style>
<g id="Grupo_86" transform="translate(-1380 -950)">
	<g id="Elipse_16" transform="translate(1380 956)">
		<ellipse class="st0" cx="473.29" cy="286.04" rx="19" ry="17"/>
		<ellipse class="st1" cx="473.29" cy="286.04" rx="18" ry="16"/>
	</g>
	<g id="Elipse_15" transform="translate(1383 956)">
		<ellipse class="st2" cx="471.79" cy="286.04" rx="17.5" ry="17"/>
		<ellipse class="st1" cx="471.79" cy="286.04" rx="16.5" ry="16"/>
	</g>
	<g id="icons_back" transform="translate(1387 950)">
		<rect id="bg" x="454.29" y="269.04" class="st0" width="40" height="40"/>
		<g id="ico" transform="translate(5.138 27.731) rotate(-90)">
			<g id="union" transform="translate(0 0)">
				<path class="st3" d="M-260.64,472.18l-7.9-7.91c-0.31-0.18-0.5-0.51-0.5-0.86v-0.02c0-0.19,0.05-0.38,0.16-0.54
					c0.04-0.07,0.09-0.13,0.14-0.19l0.01-0.01c0.03-0.03,0.07-0.06,0.1-0.09l7.98-7.98c0.39-0.39,1.02-0.39,1.41,0l0.02,0.01
					c0.39,0.39,0.39,1.02,0,1.41c0,0,0,0,0,0l-6.38,6.39h17.08c0.55,0,1,0.45,1,1v0.02c0,0.55-0.45,1-1,1h-17.04l6.35,6.35
					c0.39,0.39,0.39,1.02,0,1.41c0,0,0,0,0,0l-0.01,0.01C-259.62,472.57-260.25,472.57-260.64,472.18L-260.64,472.18z"/>
				<path d="M-259.93,472.47c-0.26,0-0.51-0.1-0.71-0.29l-7.91-7.91c-0.3-0.17-0.5-0.5-0.5-0.86v-0.02c0-0.2,0.06-0.38,0.16-0.54
					c0.04-0.07,0.09-0.13,0.15-0.19l0.01-0.01c0.03-0.03,0.07-0.06,0.11-0.09l7.98-7.98c0.2-0.2,0.45-0.29,0.71-0.29
					s0.51,0.1,0.71,0.29l0.01,0.01c0.39,0.39,0.39,1.02,0,1.41l-6.38,6.38h17.08c0.55,0,1,0.45,1,1v0.02c0,0.55-0.45,1-1,1h-17.04
					l6.35,6.35c0.39,0.39,0.39,1.02,0,1.41l-0.01,0.01C-259.42,472.37-259.68,472.47-259.93,472.47z"/>
			</g>
		</g>
	</g>
</g>
</svg>
