<?xml version="1.0" encoding="utf-8"?>
<!-- Generator: Adobe Illustrator 25.2.0, SVG Export Plug-In . SVG Version: 6.00 Build 0)  -->
<svg version="1.1" id="Capa_1" xmlns="http://www.w3.org/2000/svg" xmlns:xlink="http://www.w3.org/1999/xlink" x="0px" y="0px"
	 viewBox="0 0 874 532" style="enable-background:new 0 0 874 532;" xml:space="preserve">
<g id="Componente_4_5" transform="translate(960 85.872)">
	<path id="Rectángulo_16" d="M-559.83,223.74l45.55-0.79c2.52-0.04,4.6,1.96,4.64,4.48l0,0c0.04,2.52-1.96,4.6-4.48,4.64
		l-45.55,0.8c-2.52,0.04-4.6-1.96-4.64-4.48l0,0C-564.36,225.86-562.36,223.79-559.83,223.74z"/>
	<path id="Rectángulo_18" d="M-559.83,208.34h45.55c2.52,0,4.56,2.04,4.56,4.56l0,0c0,2.52-2.04,4.56-4.56,4.56h-45.55
		c-2.52,0-4.56-2.04-4.56-4.56l0,0C-564.4,210.39-562.35,208.34-559.83,208.34z"/>
</g>
</svg>
