<svg id="Capa_1" data-name="Capa 1" xmlns="http://www.w3.org/2000/svg" viewBox="0 0 38.84 16.86"><defs><style>.cls-1{fill:#fff;}</style></defs><path id="Rect치ngulo_16" data-name="Rect치ngulo 16" class="cls-1" d="M49.53,71.59H81.89a3.24,3.24,0,0,1,3.24,3.24h0a3.24,3.24,0,0,1-3.24,3.25H49.53a3.24,3.24,0,0,1-3.24-3.24h0A3.24,3.24,0,0,1,49.53,71.59Z" transform="translate(-46.29 -61.21)"/><path id="Rect치ngulo_18" data-name="Rect치ngulo 18" class="cls-1" d="M49.53,61.21H81.89a3.24,3.24,0,0,1,3.24,3.24h0a3.24,3.24,0,0,1-3.24,3.24H49.53a3.24,3.24,0,0,1-3.24-3.24h0A3.24,3.24,0,0,1,49.53,61.21Z" transform="translate(-46.29 -61.21)"/></svg>