<svg id="Capa_1" data-name="Capa 1" xmlns="http://www.w3.org/2000/svg" viewBox="0 0 41.85 22.99"><defs><style>.cls-1{fill:none;stroke:#fff;stroke-miterlimit:10;stroke-width:2.07px;}</style></defs><path id="Rectángulo_18" data-name="Rectángulo 18" d="M339.45,433.17H374a3.54,3.54,0,0,1,3.47,3.62h0a3.55,3.55,0,0,1-3.47,3.63H339.45a3.55,3.55,0,0,1-3.47-3.63h0A3.54,3.54,0,0,1,339.45,433.17Z" transform="translate(-335.94 -432.55)"/><path id="Rectángulo_18-2" data-name="Rectángulo 18" class="cls-1" d="M340.3,433.58h33.14a3.37,3.37,0,0,1,3.32,3.42h0a3.37,3.37,0,0,1-3.32,3.42H340.3A3.37,3.37,0,0,1,337,437h0A3.37,3.37,0,0,1,340.3,433.58Z" transform="translate(-335.94 -432.55)"/><path id="Rectángulo_18-3" data-name="Rectángulo 18" d="M339.45,447.25H374a3.55,3.55,0,0,1,3.47,3.63h0A3.54,3.54,0,0,1,374,454.5H339.45a3.54,3.54,0,0,1-3.47-3.62h0A3.55,3.55,0,0,1,339.45,447.25Z" transform="translate(-335.94 -432.55)"/><path id="Rectángulo_18-4" data-name="Rectángulo 18" class="cls-1" d="M340.3,447.67h33.14a3.37,3.37,0,0,1,3.32,3.41h0a3.37,3.37,0,0,1-3.32,3.42H340.3a3.37,3.37,0,0,1-3.32-3.42h0A3.37,3.37,0,0,1,340.3,447.67Z" transform="translate(-335.94 -432.55)"/></svg>