<svg id="Capa_1" data-name="Capa 1" xmlns="http://www.w3.org/2000/svg" viewBox="0 0 77.42 19.5"><path id="Trazado_509" data-name="Trazado 509" d="M21.4,46.43l1.69-.37L32,58.48,29.85,59l-2.13-3.08-6.54,1.45-.6,3.7-2.17.48Zm5.28,8-4-5.74h0l-1.2,6.88Z" transform="translate(-18.41 -42.01)"/><path id="Trazado_510" data-name="Trazado 510" d="M32.4,44.12l1.16,8.54c.24,1.74,1.4,3.86,4,3.5s3.2-2.71,3-4.45l-1.16-8.54,1.89-.26,1.2,8.84a5.44,5.44,0,1,1-10.76,1.63l0-.17-1.2-8.83Z" transform="translate(-18.41 -42.01)"/><path id="Trazado_511" data-name="Trazado 511" d="M44.15,42.53l4.9-.25C55,42,56.65,46.35,56.78,49c.18,3.59-2.33,7.15-7.35,7.4l-4.59.23ZM46.66,54.7l2.4-.12c3.22-.16,5.87-2.06,5.7-5.54-.08-1.78-1.19-5.19-5.75-5l-2.86.14Z" transform="translate(-18.41 -42.01)"/><path id="Trazado_512" data-name="Trazado 512" d="M59.14,42,61,42l-.23,14.07-1.9,0Z" transform="translate(-18.41 -42.01)"/><path id="Trazado_513" data-name="Trazado 513" d="M64.49,42.1l4.88.3c2.44.16,4.19,1.4,4,3.78a3.16,3.16,0,0,1-2.61,2.94v0a3.39,3.39,0,0,1,2.81,3.68c-.16,2.52-2.45,3.77-5.18,3.6l-4.82-.3Zm1.12,12.49,2.8.18c1.15.07,3.06-.2,3.19-2.19.1-1.67-1-2.57-2.86-2.69l-2.81-.18ZM66,48.05l2.6.16c1.44.09,2.65-.41,2.75-1.93a2,2,0,0,0-1.79-2.2h-.3l-3-.19Z" transform="translate(-18.41 -42.01)"/><path id="Trazado_514" data-name="Trazado 514" d="M76.85,43.12l1.9.25L77.14,55.54l6.4.84-.23,1.78L75,57.06Z" transform="translate(-18.41 -42.01)"/><path id="Trazado_515" data-name="Trazado 515" d="M86.93,44.68l8.9,1.79-.36,1.75-7-1.41-.82,4.11,6.54,1.32L93.81,54l-6.55-1.32-.89,4.42,7.38,1.49-.35,1.75-9.25-1.86Z" transform="translate(-18.41 -42.01)"/></svg>