<svg id="Capa_1" data-name="Capa 1" xmlns="http://www.w3.org/2000/svg" viewBox="0 0 28.55 96.38"><path id="Trazado_555" data-name="Trazado 555" d="M18.75,101.57l-.59-4.87c-.72-5.9,3.5-7.87,6.09-8.19,3.57-.43,7.31,1.81,7.91,6.8l.56,4.56Zm12-3.38-.29-2.38c-.39-3.2-2.48-5.7-5.93-5.29-1.77.22-5.1,1.57-4.54,6.1l.35,2.84Z" transform="translate(-16.35 -5.19)"/><path id="Trazado_556" data-name="Trazado 556" d="M17.12,86.77,17,84.87l14-.86.11,1.9Z" transform="translate(-16.35 -5.19)"/><path id="Trazado_557" data-name="Trazado 557" d="M27.92,80.76a3.52,3.52,0,0,0,1.46-3c0-1.25-.84-2.79-2.39-2.77-3.24.06-1.12,7-6.6,7.05-1.65,0-4-1.33-4-4.7a4.85,4.85,0,0,1,1.54-4.08l1.44,1.53a2.92,2.92,0,0,0-1.19,2.52c0,2.11,1.31,2.72,2.19,2.71,3.55-.06,1.32-7,6.38-7,2.72,0,4.39,2.11,4.43,4.81a5.41,5.41,0,0,1-1.87,4.53Z" transform="translate(-16.35 -5.19)"/><path id="Trazado_558" data-name="Trazado 558" d="M16.72,70.43l.17-2.5,12.05-7v0L17.4,60.16l.13-1.9,14,.94-.16,2.42-12.07,7v0l11.54.77-.12,1.9Z" transform="translate(-16.35 -5.19)"/><path id="Trazado_559" data-name="Trazado 559" d="M18.1,54.84l1.36-9,1.76.27-1.07,7.09,4.15.62,1-6.6,1.77.27-1,6.6,4.45.68,1.13-7.45,1.77.27L32,56.94Z" transform="translate(-16.35 -5.19)"/><path id="Trazado_560" data-name="Trazado 560" d="M28.79,41.62l-9,3.41.54-2.39,6.87-2.37L22,35.05l.52-2.27,6.68,7,5.85,1.33L34.64,43Z" transform="translate(-16.35 -5.19)"/><path id="Trazado_561" data-name="Trazado 561" d="M32.26,25.13l-7.86,2.3.8-2.31,6.3-1.7-3.93-5.18L28.35,16l4.76,6.6,8.69-2.47L41,22.48l-7.08,1.83,4.45,5.82-.77,2.24Z" transform="translate(-16.35 -5.19)"/><path id="Trazado_562" data-name="Trazado 562" d="M29.38,14.27l2-4.49c2.39-5.44,7-5,9.41-3.93,3.29,1.45,5.36,5.29,3.33,9.89l-1.85,4.2Zm12,3.2,1-2.2c1.3-2.95.78-6.17-2.4-7.57-1.64-.72-5.17-1.26-7,2.93l-1.15,2.61Z" transform="translate(-16.35 -5.19)"/></svg>