<svg id="Capa_1" data-name="Capa 1" xmlns="http://www.w3.org/2000/svg" viewBox="0 0 42.99 53.37"><path id="Trazado_530" data-name="Trazado 530" d="M55.56,18.52l-3.07,8.3-1.68-.62,2.41-6.5-4.14-1.53-2.24,6-1.68-.62,2.24-6.05-5.7-2.11.67-1.79Z" transform="translate(-12.56 -13.65)"/><path id="Trazado_531" data-name="Trazado 531" d="M49.84,32.33l-.71,1.57-15.3-.3.92-2,3.75.15,2.75-6.1-2.6-2.7.92-2Zm-9.53-.56,7,.27,0,0L42.5,26.92Z" transform="translate(-12.56 -13.65)"/><path id="Trazado_532" data-name="Trazado 532" d="M45.35,40.59l-1.23,2.19L30.24,43.85l0,0L40.3,49.56l-.94,1.66L27.1,44.31l1.19-2.11,13.93-1.14,0,0L32.16,35.34l.94-1.66Z" transform="translate(-12.56 -13.65)"/><path id="Trazado_533" data-name="Trazado 533" d="M33.79,55.5l2.54-3.75,1.48,1-6.15,9.09-1.48-1,2.54-3.76L22.55,50.2l1.07-1.58Z" transform="translate(-12.56 -13.65)"/><path id="Trazado_534" data-name="Trazado 534" d="M28.43,65.65,27.37,67,12.56,63.15l1.37-1.76,3.61,1,4.1-5.29-1.9-3.23,1.36-1.76Zm-9.14-2.77L26,64.77l0,0-3.47-6.07Z" transform="translate(-12.56 -13.65)"/></svg>