<?xml version="1.0" encoding="utf-8"?>
<!-- Generator: Adobe Illustrator 25.2.0, SVG Export Plug-In . SVG Version: 6.00 Build 0)  -->
<svg version="1.1" id="Capa_1" xmlns="http://www.w3.org/2000/svg" xmlns:xlink="http://www.w3.org/1999/xlink" x="0px" y="0px"
	 viewBox="0 0 874 532" style="enable-background:new 0 0 874 532;" xml:space="preserve">
<style type="text/css">
	.st0{fill:#1F1713;}
</style>
<g>
	<path class="st0" d="M271.73,371.3l0.13,2.08l0.52,4.03l0.13,1.95l-0.13,1.04l-0.13,1.43l-0.65,1.04l-0.78,0.65l-1.43,0.26
		l-1.95,0.13h-2.08l-5.2-0.39l-2.21-0.13h-3.25l-2.34-0.13l-4.81-0.65l-0.91-0.26l-0.52-0.65l-0.13-1.3l-0.13-1.82l-0.13-1.95
		l0.26-4.42v-12.23l-0.39-8.19v-2.08l0.52-8.06V331.5l-0.26-1.56l-0.78-0.52h-0.78l-0.91,1.17l-1.3,1.82l-5.46,6.24l-7.93,9.5
		l-5.2,6.51l-1.17,1.04l-0.91,0.39h-1.04l-1.43-0.26l-1.56-0.39l-1.43-1.04l-6.51-7.81l-4.81-6.37l-1.3-1.56l-6.76-7.54l-1.69-1.69
		l-0.78,0.26l-0.26,1.43l-0.39,8.19v2.08l0.52,8.2v2.08l0.26,8.19v2.08l-0.13,8.07v1.95l0.13,3.9l-0.13,2.08l-0.13,2.21l-0.26,1.69
		l-0.52,0.78l-0.91,0.26l-3.38,0.39l-2.08,0.13l-5.07-0.39l-2.08,0.13l-6.25,0.52h-2.99l-1.56-0.26l-0.78-0.78l-0.26-0.91l-0.26-1.3
		v-2.99l0.26-4.03v-20.03l-0.26-6.9v-2.08l0.13-6.89l-0.13-2.08l-0.39-7.02v-2.08l0.39-6.9l0.13-2.08l-0.52-6.9l0.13-2.08l0.52-6.9
		v-2.08l-0.52-4.81v-2.08l0.26-1.69l0.52-0.91l0.78-0.65l1.04-0.26l1.69-0.13l2.21,0.26l2.86,0.65h2.08l4.03-0.39l2.21-0.26
		l1.95-0.13l4.94,0.13h1.69l1.43,0.65l1.3,1.43l4.55,5.07l1.3,1.69l3.77,5.33l1.3,1.69l4.29,5.07l1.3,1.82l4.03,5.07l1.3,1.43
		l1.17,0.65h1.3l1.17-0.65l1.17-1.3l3.9-5.2l1.3-1.82l4.16-5.07l1.3-1.69l4.55-5.07l1.3-1.69l3.38-4.16l1.04-1.43l1.04-1.04
		l1.3-0.65l1.69,0.13l6.89,0.39l6.11,0.13h2.08l3.9-0.26l2.21,0.13l1.56,0.26l0.91,0.26l0.78,0.65l0.26,1.04l-0.13,1.56l-0.52,5.85
		l-0.13,2.08l0.26,6.9v2.08l-0.13,6.9v2.08l0.13,6.9v2.08l0.52,7.02v2.08l-0.52,6.89v2.08l0.39,6.9v2.08l-0.52,6.9v2.08
		L271.73,371.3z"/>
	<path class="st0" d="M383.29,379.5l0.38,1.82l-0.88,1.43l-1.38,0.65l-1.63,0.26h-1.76l-2.89-0.26l-1.89-0.13h-5.66l-7.8,0.52
		l-1.63-0.52l-0.76-1.04l-0.63-1.43l-3.9-10.93l-0.88-1.3l-1.13-0.26l-1.51-0.13l-7.54-0.52h-2.01l-9.43-0.26l-7.55-0.13h-1.89
		l-1.89,0.13h-5.78l-1.63,0.26l-1.01,0.65l-0.75,1.56l-2.89,8.85l-0.75,2.08l-1.38,1.69l-1.89,0.78l-2.01-0.13l-7.29-0.39h-2.01
		l-7.8,0.52l-1.63,0.13l-1.51-0.78l-1.01-1.43l0.13-1.69l0.25-1.04l0.75-2.08l1.76-4.03l0.75-1.95l3.15-7.29l0.75-1.82l3.27-7.29
		l0.75-1.95l2.89-7.02l0.75-1.95l3.4-7.28l0.75-1.82l4.53-10.67l3.52-7.81l0.88-2.08l2.77-5.86l0.88-2.08l2.39-5.98l0.75-1.95
		l2.26-5.33l0.63-1.43l1.26-0.78l1.89-0.39l5.78-0.26h9.81l5.78,0.13l2.14,0.39l1.38,1.04l0.63,1.69l1.76,5.07l0.75,1.95l3.15,6.11
		l0.75,1.82l2.77,6.38l0.76,1.82l2.26,6.63l0.75,1.82l2.77,6.25l0.75,1.82l2.77,6.37l0.75,1.82l2.52,6.5l0.75,1.82l3.9,8.07
		l3.02,6.11l0.88,1.82l3.39,8.2L383.29,379.5z M341.29,342.81l-0.5-1.69l-2.77-8.85l-0.63-1.95l-2.52-7.67l-0.63-1.69l-1.26-0.91
		l-1.63-0.39l-1.38,0.39l-1.26,1.3l-3.39,8.85l-0.75,1.95l-3.27,8.71l-0.38,1.95l0.38,1.56l1.38,0.65l1.76,0.26h7.92l5.91,0.39
		l1.63-0.52l1.01-1.04L341.29,342.81z"/>
	<path class="st0" d="M481.45,382.62l-1.69,0.52h-9.11l-7.16-0.13h-2.08l-5.85,0.26h-1.69l-1.17-0.52l-1.04-1.04l-4.16-5.86
		l-1.17-1.56l-4.16-5.59l-1.17-1.56l-3.64-5.98l-1.17-1.56l-4.16-5.59l-0.91-1.04l-0.78-0.39l-1.56-0.13l-4.16-0.26l-1.69,0.13
		l-1.04,0.78l-0.39,1.69l-0.26,7.15l0.13,2.08l0.52,7.29l0.13,2.08l0.13,3.12v2.08l-0.13,2.08l-0.26,1.56l-0.65,0.65l-1.43,0.39
		h-2.08l-6.25-0.39l-5.98,0.39h-2.08l-5.98-0.39l-1.56-0.26l-0.78-0.52l-0.26-1.3l-0.13-1.82l-0.13-1.95l0.26-3.38l0.13-2.08
		l0.52-7.02v-2.08l-0.39-7.03l-0.13-2.08l-0.13-6.9v-2.08l0.39-7.02v-2.08l-0.39-7.02v-2.08l0.39-7.02v-2.08l0.26-6.89v-2.08
		l-0.13-7.02v-2.08l-0.26-4.29l0.13-1.95l0.13-0.78l0.39-1.69l0.78-1.04l1.56-0.39l1.04-0.13l1.95-0.13l5.85,0.26l15.48,0.52
		l8.85-0.52h2.08l8.59,0.52h4.94l2.21,0.13l1.95,0.39l2.73,0.78l1.95,0.65l1.95,0.78l2.08,0.78l1.95,0.91l1.69,1.04l2.47,1.69
		l1.43,1.17l1.3,1.3l1.3,1.56l1.82,2.6l1.17,1.69l1.56,2.47l0.91,1.82l0.91,1.95l0.65,2.08l0.39,2.08l0.13,2.08l0.26,2.86v2.08
		l-0.13,2.08l-0.26,2.21l-0.39,2.21l-0.52,2.08l-0.78,1.95l-0.91,1.95l-1.17,1.95l-1.17,1.69l-1.17,1.56l-1.17,1.43l-2.08,2.08
		l-1.43,1.17l-2.6,1.43l-1.56,0.91l-1.69,0.91l-1.69,0.39l-1.04,0.39l0.52,1.04l4.68,6.64l1.17,1.56l4.68,6.37l1.3,1.56l4.68,6.51
		l1.3,1.56l4.03,4.68l1.17,1.43l0.65,1.43L481.45,382.62z M442.04,332.54l2.86-0.52l1.69-0.65l1.56-0.91l1.3-1.56l0.91-1.95
		l0.52-2.08l0.13-2.08l-0.13-2.21l-0.26-2.21l-0.52-1.95l-0.91-1.95l-1.17-1.56l-1.43-1.17l-1.82-0.78l-2.86-0.65l-2.08-0.26
		l-6.51-0.13h-2.08l-6.63,0.39l-1.56,0.13l-0.91,0.39l-0.78,0.78l-0.13,1.43l0.13,2.99l0.26,2.08l0.26,2.21l0.13,2.21l-0.26,7.16
		l0.13,1.43l0.26,0.78l0.91,0.39l1.56,0.26l6.76,0.52h2.08L442.04,332.54z"/>
	<path class="st0" d="M573.58,371.3l-1.04,1.04l-2.34,2.08l-1.56,1.17l-2.47,1.82l-1.56,1.04l-2.6,1.43l-1.69,0.91l-2.99,1.43
		l-1.95,0.65l-2.21,0.65l-2.21,0.39l-3.25,0.65l-4.55,0.52l-2.34,0.13l-3.25,0.26h-6.77l-2.21-0.13l-2.21-0.26l-2.21-0.39
		l-2.21-0.52l-1.95-0.65l-5.86-1.56l-2.86-1.04l-1.69-0.78l-2.47-1.43l-1.56-1.17l-1.69-1.17l-1.82-1.17l-3.38-2.86l-1.56-1.56
		l-1.43-1.69l-1.43-1.95l-1.17-1.82l-1.04-1.82l-0.91-1.82l-1.3-2.73l-1.95-5.46l-0.91-2.6l-1.3-3.9l-0.26-1.95l-0.13-2.99
		l0.13-1.95l0.13-2.08v-2.21l0.26-4.42l0.13-2.08l0.39-1.95l0.52-2.86l0.52-1.95l0.65-1.95l0.65-1.82l0.91-2.6l0.91-1.82l0.91-1.95
		l1.04-1.95l1.17-1.95l1.17-1.82l1.3-1.69l1.43-1.82l1.56-1.69l1.56-1.43l1.69-1.43l1.56-1.3l4.16-2.86l1.69-1.04l1.82-1.04
		l3.9-1.82l2.21-0.78l2.08-0.65l4.42-1.04l2.21-0.39l2.21-0.26l4.03-0.26l2.86-0.26l1.95,0.13l2.86,0.13l4.82,0.65l1.82,0.39
		l2.99,0.52l4.55,1.3l1.82,0.78l2.86,1.69l1.82,1.04l3.38,2.34l4.03,2.86l1.43,1.04l0.78,0.65l0.91,0.91l0.26,1.04l-0.13,1.04
		l-0.78,1.04l-1.17,1.43l-1.43,1.43l-1.43,1.3l-1.43,1.17l-1.43,1.43l-2.21,2.6l-1.43,1.56l-0.65,0.65l-1.17,1.04l-0.91,0.39
		l-0.91,0.13l-0.91-0.26l-1.43-0.78l-2.47-1.82l-1.69-0.91l-2.86-1.3l-1.82-0.65l-2.86-0.78l-1.95-0.39l-3.26-0.26h-2.08l-2.86,0.26
		l-2.08,0.52l-2.86,0.91l-1.95,0.78l-1.69,0.65l-2.6,1.3l-1.82,1.3l-0.91,0.78l-1.56,1.69l-1.17,1.82l-0.91,1.69l-0.91,1.82
		l-0.78,1.95l-0.65,2.08l-0.39,2.21l-0.26,1.95l-0.26,3.9v2.08l0.13,3.25l0.13,1.95l0.65,2.99l0.65,1.95l0.91,2.21l1.04,1.95
		l1.95,2.86l1.43,1.56l2.47,2.08l1.69,1.17l2.6,1.3l1.95,0.78l2.86,0.78l2.08,0.39l3.12,0.13h2.99l1.82-0.39l1.04-0.26l1.95-0.65
		l3.25-1.17l2.08-0.91l1.95-0.91l1.69-0.91l2.47-1.56l1.69-1.3l1.3-0.91l0.78-0.26l1.17,0.26l1.43,0.91l1.43,1.3l0.52,0.78l1.3,1.43
		l2.08,2.6l1.3,1.56l3.51,4.03l1.17,1.56l0.65,0.65l0.65,1.17V371.3z"/>
	<path class="st0" d="M684,335.14l-0.13,2.08l-0.26,2.99l-0.26,1.95l-0.78,3.9l-0.26,2.99l-0.26,1.95l-0.39,2.08l-0.52,1.95
		l-1.3,2.73l-0.91,1.82l-3.51,5.85l-1.17,1.69l-1.3,1.69l-1.3,1.43l-2.08,2.21l-1.43,1.3l-1.69,1.3l-1.56,1.17l-2.34,1.56
		l-1.69,1.04l-1.95,1.04l-1.82,0.78l-2.6,1.04l-1.95,0.52l-4.16,1.3l-2.21,0.65l-2.08,0.52l-2.21,0.52l-2.21,0.39l-2.21,0.13h-7.02
		l-4.42-0.26l-4.3-0.52l-1.82-0.39l-1.95-0.52l-7.02-2.34l-2.08-0.65l-2.21-0.91l-4.16-1.82l-1.95-1.04l-1.95-1.17l-1.69-1.3
		l-1.69-1.43l-1.56-1.69l-1.43-1.69l-3.51-3.51l-1.3-1.56l-1.3-1.69l-1.04-1.69l-1.04-2.6l-1.95-5.86l-0.78-2.73l-0.39-1.95
		l-0.39-2.08l-0.39-1.95l-0.39-2.86l-0.13-1.95l-0.13-2.21v-2.21l0.13-2.21l0.13-2.34l0.26-2.21l0.39-2.21l0.52-2.21l0.65-2.21
		l0.65-1.95l0.78-2.08l0.91-2.99l0.91-2.08l0.52-1.17l1.04-1.95l1.82-2.86l1.3-1.82l0.65-1.04l1.56-1.56l2.21-1.82l1.69-1.3
		l1.69-1.17l3.9-2.6l1.69-1.04l1.82-1.04l1.82-0.91l2.73-1.17l1.82-0.65l1.95-0.65l1.95-0.52l4.94-0.91l1.95-0.39l6.51-0.78
		l4.16-0.26l3.9,0.26l3.12,0.13l2.21,0.26l2.21,0.39l2.21,0.52l2.21,0.39l2.08,0.52l1.95,0.52l1.95,0.65l2.73,1.04l1.82,0.78
		l4.3,2.47l1.69,1.17l1.69,1.3l2.21,2.08l1.43,1.3l1.43,1.43l1.17,1.56l1.82,2.47l1.04,1.69l0.91,1.69l1.04,1.69l1.43,2.6l1.04,1.69
		l0.91,1.95l0.65,1.82l0.65,2.99l0.78,3.9l0.26,2.21l0.39,2.21L684,335.14z M652.26,352.05l1.17-1.82l1.3-2.86l0.78-1.95l0.65-2.99
		l0.26-1.95l0.26-3.12v-2.21l-0.13-2.21l-0.13-2.08l-0.78-3.9l-0.52-1.82l-1.43-2.86l-1.04-1.69l-1.82-2.34l-1.3-1.43l-1.95-2.08
		l-1.43-1.17l-3.38-1.95l-1.82-0.78l-2.08-0.65l-2.08-0.39l-4.16-0.26l-1.95,0.13l-2.86,0.13l-1.95,0.39l-3.38,0.91l-2.08,0.78
		l-2.99,1.56l-1.82,1.17l-2.08,1.82l-1.43,1.56l-1.43,1.95l-1.04,1.69l-0.39,0.78l-1.17,2.73l-0.65,1.95l-0.39,0.91l-0.39,1.82
		l-0.26,1.82l-0.13,1.82l-0.13,1.95v1.95l0.13,2.08l0.39,2.08l0.13,1.17l0.52,1.95l0.26,0.91l0.65,1.82l0.52,1.04l1.04,1.82
		l0.65,1.04l1.43,1.82l0.78,0.91l1.56,1.56l2.6,2.21l1.82,1.17l2.08,1.04l1.95,0.78l2.73,0.91l1.95,0.39l3.26,0.39l2.21,0.13
		l3.25-0.26l2.08-0.26l2.86-0.65l1.82-0.78l2.86-1.82l1.56-1.17l2.08-2.08l1.3-1.43L652.26,352.05z"/>
	<path class="st0" d="M383.29,277.32l0.38,1.86l-0.9,1.46l-1.41,0.66l-1.67,0.27h-1.8l-2.95-0.27l-1.92-0.13h-5.77l-7.95,0.53
		l-1.67-0.53l-0.77-1.06l-0.64-1.46l-3.98-11.14l-0.9-1.33l-1.15-0.27l-1.54-0.13l-7.69-0.53h-2.05l-9.62-0.27l-7.69-0.13h-1.92
		l-1.92,0.13h-5.9l-1.67,0.27l-1.03,0.66l-0.77,1.6l-2.95,9.02l-0.77,2.12l-1.41,1.72l-1.92,0.8l-2.05-0.13l-7.44-0.4h-2.05
		l-7.95,0.53l-1.67,0.13l-1.54-0.79l-1.03-1.46l0.13-1.72l0.26-1.06l0.77-2.12l1.79-4.11l0.77-1.99l3.21-7.43l0.77-1.86l3.33-7.43
		l0.77-1.99l2.95-7.17l0.77-1.99l3.46-7.43l0.77-1.86l4.62-10.87l3.59-7.96l0.9-2.13l2.82-5.97l0.9-2.12l2.44-6.11l0.77-1.99
		l2.31-5.44l0.64-1.46l1.28-0.79l1.92-0.4l5.9-0.26h10l5.9,0.13l2.18,0.4l1.41,1.06l0.64,1.72l1.79,5.17l0.77,1.99l3.21,6.24
		l0.77,1.86l2.82,6.5l0.77,1.86l2.31,6.77l0.77,1.86l2.82,6.37l0.77,1.85l2.82,6.5l0.77,1.86l2.57,6.63l0.77,1.86l3.97,8.22
		l3.08,6.24l0.9,1.86l3.46,8.36L383.29,277.32z M340.45,239.91l-0.51-1.72l-2.82-9.02l-0.64-1.99l-2.57-7.83l-0.64-1.72l-1.28-0.93
		l-1.67-0.4l-1.41,0.4l-1.28,1.33l-3.46,9.02l-0.77,1.99l-3.33,8.89l-0.39,1.99l0.39,1.6l1.41,0.66l1.79,0.27h8.08l6.03,0.4
		l1.67-0.53l1.03-1.06L340.45,239.91z"/>
	<path class="st0" d="M270.28,268.83l0.14,2.13l0.27,3.32l0.13,1.99l-0.13,1.86l-0.68,1.72l-0.95,0.93l-1.49,0.13l-2.16,0.27
		l-7.3-0.4h-2.16l-7.17,0.53h-2.17l-1.89-0.4l-0.81-1.06l-0.27-1.86l-0.54-8.62l-0.13-2.12l0.27-8.62v-2.12l-0.27-8.49v-1.86
		l-0.54-1.06l-1.49-0.53h-3.25l-5.41,0.4l-2.17,0.13l-10.82-0.26l-20.22-0.4l-1.76,0.13l-1.22,0.4l-0.67,1.19l-0.14,1.86l0.14,8.49
		v2.12l-0.27,8.62l0.13,2.12l0.54,5.7v3.05l-0.54,1.86l-1.22,1.06l-1.76,0.4l-2.03,0.13l-2.03-0.13l-5.68-0.53l-2.16-0.13l-6.36,0.4
		l-2.17-0.13h-1.08l-1.49-0.27l-1.08-0.53l-0.54-0.66l-0.27-1.46l-0.14-1.19v-2.12l0.27-3.98v-11.15l0.27-7.03v-2.12l0.14-7.03
		v-2.12l-0.41-7.03v-2.12l-0.13-7.03v-9.15l0.13-2.13l0.41-7.03l0.13-2.12l-0.13-7.03l-0.14-2.12l-0.67-4.51v-2.79l0.54-1.6
		l1.22-0.93l1.76-0.4l2.03-0.13h2.03l5.68,0.27h2.16l5.41-0.4h2.16l2.03,0.13l1.76,0.27l1.08,1.06l0.54,1.72l0.14,0.93v1.99
		l-0.41,5.97l-0.13,2.12l-0.14,8.62v10.88l0.14,1.59l0.4,1.06l0.68,0.53l1.35,0.13l1.89,0.13h1.89l18.05-0.8l2.03-0.13l8.66,0.27
		l7.98,0.53h2.03l0.95-0.13l1.49-0.8l0.54-1.06l0.14-1.46l0.54-8.62v-2.12l-0.27-8.62v-2.12l-0.14-8.62l0.41-2.12l1.08-1.19
		l1.62-0.27h2.16l7.3,0.4h2.16l6.09-0.4l2.17,0.13h1.22l1.76,0.27l1.08,1.06l0.54,1.86v1.99l-0.41,5.31l-0.13,2.12l0.4,7.03v2.12
		l-0.27,7.03v2.13l0.54,7.03v2.12l-0.54,7.03v2.12l-0.27,7.03v2.12l0.14,7.03v2.12l-0.14,7.03V268.83z"/>
	<path class="st0" d="M479.51,251.85l-0.13,2.13l-0.27,3.45l-0.4,1.99l-0.93,2.79l-0.8,1.86l-1.33,2.52l-1.19,1.72l-2.12,2.52
		l-1.46,1.46l-3.32,2.39l-1.72,1.06l-1.86,0.93l-1.99,0.93l-2.12,0.66l-1.99,0.66l-5.97,1.19l-3.05,0.4l-2.12,0.13l-3.18,0.27h-2.12
		l-7.3,0.27H422.6l-7.43-0.4h-2.12l-7.3,0.27h-1.99l-5.04-0.13l-2.12-0.27l-1.86-0.26l-1.06-0.4l-0.66-0.66l-0.27-1.46l-0.13-1.85
		l0.13-1.99v-2.12l0.13-1.06v-2.26l0.4-7.03l-0.13-2.12l-0.13-3.32l-0.13-1.99l-0.13-1.85v-1.99l0.13-3.32v-5.84l0.53-7.03v-2.13
		l-0.27-7.03v-2.12l-0.13-7.03l0.13-2.12l0.4-7.03l0.13-2.12l-0.53-7.03l-0.13-2.12l-0.4-3.98v-3.05l0.53-1.72l1.33-0.8l1.86-0.26
		l2.12-0.13l14.46-0.4l11.54,0.66l7.16-0.26h2.12l7.3,0.13h2.12l7.69,0.53l2.26,0.26l2.26,0.4l5.04,1.6l1.99,0.93l2.52,1.33
		l1.72,1.19l2.26,1.86l1.33,1.46l1.86,2.26l0.93,1.72l1.46,2.52l0.8,1.86l0.66,1.99l0.4,2.13l0.53,3.45l0.13,2.12l-0.13,2.26
		l-0.4,2.26l-0.8,3.05l-0.8,1.86l-1.46,2.52l-1.33,1.46l-2.12,1.99l-1.06,1.06l-0.4,0.93l0.4,1.06l1.19,1.33l1.59,1.46l1.59,1.72
		l1.99,2.79l1.19,1.99l0.93,2.12l0.53,1.06l0.66,2.12l0.53,2.26l0.27,2.26L479.51,251.85z M419.15,215.63l0.13,1.06l0.13,2.13
		l0.27,1.46l0.53,0.8l1.06,0.53l1.59,0.13h5.31l2.26-0.13h2.26l3.05,0.26l4.51,0.27h2.92l1.72-0.4l1.59-0.8l1.33-0.93l0.93-1.06
		l0.8-1.32l0.4-1.86v-2.26l-0.4-1.72l-1.19-1.72l-1.86-1.33l-0.8-0.26l-1.99-0.53l-0.93-0.13l-2.26-0.26h-1.19l-5.17-0.66h-1.99
		l-3.32,0.13l-2.12,0.13h-2.79l-1.33,0.27l-1.19,0.13l-0.8,0.4l-0.53,0.66l-0.4,1.72l-0.4,3.18L419.15,215.63z M449.66,258.35
		l1.06-0.93l0.53-0.79l0.93-1.99l0.4-2.12l0.13-0.79l-0.13-1.86l-0.4-1.86l-1.06-1.86l-0.8-0.93l-1.72-1.72l-2.12-1.19l-1.99-0.66
		l-0.93-0.26l-1.86-0.13l-5.97,0.27l-2.26,0.13h-7.83l-1.99,0.13l-2.39,0.4l-1.19,0.4l-0.4,0.66l-0.13,1.59v2.26l0.13,2.12v2.92
		l-0.27,2.26v2.65l0.27,1.46l0.53,0.79l0.93,0.53l1.72,0.27l18.71-0.4l4.51-0.26l2.12-0.4L449.66,258.35z"/>
	<path class="st0" d="M562.48,274.8l-0.13,2.12v1.19l-0.4,1.59l-0.8,0.93l-0.93,0.4l-1.33,0.26h-1.06l-1.86,0.13l-14.73-0.8h-9.95
		l-11.94,0.8l-7.69-0.53h-9.82l-6.1,0.4h-1.99l-1.86-0.13l-1.46-0.27l-0.93-0.53l-0.66-0.8l-0.27-1.59v-2.12l0.66-5.04l0.13-1.99
		l-0.53-7.03v-2.13l0.27-7.03v-2.12l0.27-16.19v-2.12l-0.53-16.18v-2.13l-0.13-7.03V195.6l-0.27-3.98v-1.99l0.13-1.19l0.4-1.72
		l0.53-0.79l0.93-0.4l1.46-0.27h1.06l1.99-0.13l6.5,0.4h2.12l9.42-0.13h1.33l0.93,0.53l0.66,0.93v11.54l0.27,7.69v2.12l-0.4,7.7
		v2.12l0.27,7.69v2.13l0.4,7.69v2.12l-0.8,17.51l0.13,1.33l0.13,0.66l0.27,0.66l0.66,0.53l1.59,0.26l4.51,0.27l3.98-0.27h2.12
		l19.1-0.26l2.12-0.13l4.51-0.53l2.12-0.13h1.99l1.59,0.4l0.93,0.79l0.4,0.93l0.13,1.46l0.13,7.43l0.13,2.12L562.48,274.8z"/>
	<path class="st0" d="M683.6,277.32l0.4,1.86l-0.93,1.46l-1.46,0.66l-1.72,0.27h-1.86l-3.05-0.27l-1.99-0.13h-5.97l-8.23,0.53
		l-1.72-0.53l-0.79-1.06l-0.66-1.46l-4.11-11.14l-0.93-1.33l-1.19-0.27l-1.59-0.13l-7.96-0.53h-2.12l-9.95-0.27l-7.96-0.13h-1.99
		l-1.99,0.13h-6.1l-1.72,0.27l-1.06,0.66l-0.8,1.6l-3.05,9.02l-0.8,2.12l-1.46,1.72l-1.99,0.8l-2.12-0.13l-7.69-0.4h-2.13
		l-8.22,0.53l-1.72,0.13l-1.59-0.79l-1.06-1.46l0.13-1.72l0.27-1.06l0.79-2.12l1.86-4.11l0.8-1.99l3.32-7.43l0.79-1.86l3.45-7.43
		l0.8-1.99l3.05-7.17l0.79-1.99l3.58-7.43l0.79-1.86l4.78-10.87l3.71-7.96l0.93-2.13l2.92-5.97l0.93-2.12l2.52-6.11l0.79-1.99
		l2.39-5.44l0.66-1.46l1.32-0.79l1.99-0.4l6.1-0.26h10.35l6.1,0.13l2.26,0.4l1.46,1.06l0.66,1.72l1.86,5.17l0.8,1.99l3.32,6.24
		l0.79,1.86l2.92,6.5l0.8,1.86l2.39,6.77l0.79,1.86l2.92,6.37l0.8,1.85l2.92,6.5l0.8,1.86l2.65,6.63l0.8,1.86l4.11,8.22l3.18,6.24
		l0.93,1.86l3.58,8.36L683.6,277.32z M639.29,239.91l-0.53-1.72l-2.92-9.02l-0.66-1.99l-2.65-7.83l-0.66-1.72l-1.33-0.93l-1.72-0.4
		l-1.46,0.4l-1.33,1.33l-3.58,9.02l-0.79,1.99l-3.45,8.89l-0.4,1.99l0.4,1.6l1.46,0.66l1.86,0.27h8.36l6.24,0.4l1.72-0.53l1.06-1.06
		L639.29,239.91z"/>
</g>
</svg>
