<svg id="Capa_1" data-name="Capa 1" xmlns="http://www.w3.org/2000/svg" viewBox="0 0 22.48 82.44"><path d="M83.76,32.6l.52,2L78.1,36.19l2,7.71,6.17-1.57.52,2L71.88,48.13l-.51-2,6.8-1.74-2-7.71L69.4,38.41l-.51-2Z" transform="translate(-68.89 -32.6)"/><path d="M80.08,49.54a8,8,0,1,1-6.73,9.15A7.82,7.82,0,0,1,80.08,49.54Zm2.14,13.63c3.32-.52,5.69-3.2,5.15-6.67s-3.62-5.29-6.94-4.77-5.69,3.19-5.15,6.66A5.78,5.78,0,0,0,82.22,63.17Z" transform="translate(-68.89 -32.6)"/><path d="M90.53,68.28,90.69,71,78.58,80.2v0l12.6-.74.12,2.08L76,82.48l-.15-2.64,12.09-9.28v0l-12.6.75-.12-2.08Z" transform="translate(-68.89 -32.6)"/><path d="M91.36,86.24l-.16,5.35c-.2,6.48-5.09,7.92-7.93,7.83-3.92-.12-7.58-3.16-7.41-8.65l.15-5ZM77.9,87.9l-.08,2.63c-.11,3.51,1.73,6.56,5.52,6.68,2,.06,5.76-.84,5.91-5.83l.1-3.12Z" transform="translate(-68.89 -32.6)"/><path d="M90.05,108.4l-.22,1.88-16,4.76.28-2.42L78,111.53l.85-7.26-3.6-2,.28-2.41ZM79.94,111l7.34-2v0l-6.67-3.7Z" transform="translate(-68.89 -32.6)"/></svg>