<svg id="Capa_1" data-name="Capa 1" xmlns="http://www.w3.org/2000/svg" viewBox="0 0 17.81 60.12"><path id="Trazado_524" data-name="Trazado 524" d="M38.32,19.66a3.52,3.52,0,0,0-.9,3.21c.24,1.23,1.31,2.6,2.84,2.3,3.17-.62-.13-7,5.25-8.1,1.62-.32,4.13.61,4.78,3.92a4.88,4.88,0,0,1-.8,4.29L47.8,24a2.93,2.93,0,0,0,.73-2.69c-.41-2.07-1.77-2.45-2.63-2.28-3.49.69-.07,7.08-5,8.06-2.67.52-4.69-1.31-5.21-4a5.38,5.38,0,0,1,1-4.78Z" transform="translate(-35.47 -17.01)"/><path id="Trazado_525" data-name="Trazado 525" d="M51.3,27.84l.62,4.91c.45,3.57-1.59,4.75-3.34,5s-4-.42-4.47-4l-.38-3-6.15.77-.24-1.89Zm-5.91,2.67L45.7,33c.19,1.5.73,3,2.62,2.72s2.06-1.79,1.87-3.28l-.31-2.49Z" transform="translate(-35.47 -17.01)"/><path id="Trazado_526" data-name="Trazado 526" d="M52.72,39.37,53,44.31c.2,3.59-1.92,4.62-3.69,4.71a3.77,3.77,0,0,1-3.9-3.24l-6.19,4.33-.13-2.38,6-3.91L45,41.7,38.78,42l-.1-1.9Zm-6.09,2.24.14,2.5c.08,1.51.52,3,2.42,2.89s2.18-1.63,2.11-3.14l-.14-2.5Z" transform="translate(-35.47 -17.01)"/><path id="Trazado_527" data-name="Trazado 527" d="M53.2,51.28l0,1.91-14.06.23,0-1.91Z" transform="translate(-35.47 -17.01)"/><path id="Trazado_528" data-name="Trazado 528" d="M51.28,59.71l.21-4.52,1.79.08-.52,11L51,66.14l.22-4.52L38.92,61l.09-1.9Z" transform="translate(-35.47 -17.01)"/><path id="Trazado_529" data-name="Trazado 529" d="M52.49,68.11l-1.06,9-1.78-.21.84-7.12-4.16-.49-.78,6.63-1.78-.21.78-6.63-4.48-.53-.88,7.48-1.77-.21,1.1-9.37Z" transform="translate(-35.47 -17.01)"/></svg>